<?xml version="1.0" encoding="utf-8"?>
<!-- Generator: Adobe Illustrator 16.0.0, SVG Export Plug-In . SVG Version: 6.00 Build 0)  -->
<!DOCTYPE svg PUBLIC "-//W3C//DTD SVG 1.1//EN" "http://www.w3.org/Graphics/SVG/1.1/DTD/svg11.dtd">
<svg version="1.1" id="Layer_1" xmlns="http://www.w3.org/2000/svg" xmlns:xlink="http://www.w3.org/1999/xlink" x="0px" y="0px"
	 width="295.621px" height="295.89px" viewBox="0 0 295.621 295.89" enable-background="new 0 0 295.621 295.89"
	 xml:space="preserve">
<g>
	<path fill-rule="evenodd" clip-rule="evenodd" fill="#F7F7F7" d="M274.881,73.934c2.988,2.755,4.821,6.318,6.382,9.931
		c7.06,16.346,12.372,33.05,13.851,51.07c1.669,20.342-0.8,39.785-7.005,59.179c-8.461,26.446-23.678,48.218-44.32,66.171
		c-16.436,14.294-35.366,24.252-56.67,29.938c-14.068,3.756-28.166,6.013-42.628,5.623c-20.079-0.539-39.338-4.961-57.617-13.425
		c-28.872-13.37-51.534-33.497-66.965-61.499c0.426-0.353,0.915-0.508,1.465-0.469c2.323,0.674,3.244,2.732,4.407,4.526
		c24.882,38.378,60.119,60.721,105.367,66.295c40.11,4.94,76.327-5.95,107.734-31.216c29.999-24.133,47.236-55.936,52.379-94.021
		c3.892-28.821-1.371-56.3-13.99-82.434c-1.286-2.664-3.21-5.116-3.15-8.304C274.223,74.76,274.479,74.306,274.881,73.934z"/>
	<path fill-rule="evenodd" clip-rule="evenodd" fill="#F7F7F7" d="M274.881,73.934c-0.001,0.336-0.003,0.673-0.005,1.01
		c-2.788,0.258-3.552-2.084-4.647-3.801c-22.74-35.633-54.997-57.768-96.399-65.18C128.208-2.206,87.452,9.386,52.188,39.834
		c-10.582,9.136-19.116,19.871-26.702,31.48c-1.081,1.655-1.986,3.524-4.148,4.105c-0.542,0.032-1.018-0.13-1.43-0.481
		c13.247-24.502,32.62-42.855,56.768-56.352c17.866-9.986,37.016-15.58,57.416-17.811c16.252-1.777,32.129-0.431,47.803,3.3
		c21.388,5.091,40.945,14.31,57.994,28.398c12.218,10.095,23.196,21.361,31.836,34.756
		C273.081,69.333,274.459,71.402,274.881,73.934z"/>
	<path fill-rule="evenodd" clip-rule="evenodd" fill="#F6F6F6" d="M19.908,74.938c0.336,0,0.671,0.001,1.007,0.001
		c1.568,2.736-0.441,4.792-1.489,6.898C12.708,95.347,7.972,109.513,5.448,124.37c-5.214,30.692-0.22,59.892,13.082,87.865
		c1.279,2.69,3.964,5.149,2.385,8.685c-0.335,0-0.671,0.001-1.007,0.002c-7.131-10.386-10.609-22.231-14.341-34.103
		c-4.289-13.643-5.75-27.544-5.55-41.616C0.3,125.306,4.7,106.208,12.824,87.97C14.854,83.412,16.819,78.888,19.908,74.938z"/>
	<path fill-rule="evenodd" clip-rule="evenodd" fill="#FEFEFE" d="M20.915,220.92c-3.097-8.386-7.73-16.087-10.483-24.664
		c-3.799-11.839-6.434-23.765-7.703-36.204c-2.274-22.267,1.697-43.384,9.011-64.207c2.538-7.225,6.746-13.665,9.175-20.906
		c5.29-5.516,8.699-12.395,13.46-18.343C50.75,36.138,71.104,21.333,95.471,11.943c17.342-6.683,35.366-10.307,53.922-9.886
		c25.248,0.573,49.015,6.863,71.133,19.531c11.21,6.419,21.309,14.147,30.374,23.108c7.751,7.662,14.919,15.996,20.298,25.666
		c0.923,1.66,1.694,3.673,3.679,4.582c3.348,8.66,8.097,16.714,10.876,25.632c3.503,11.238,6.017,22.585,7.291,34.364
		c2.129,19.67-0.521,38.674-6.283,57.306c-5.851,18.918-15.518,35.799-28.468,50.887c-8.39,9.775-17.871,18.213-28.477,25.372
		c-18.562,12.53-38.916,20.371-61.195,23.53c-42.284,5.995-79.803-5.124-113.064-31.177c-12.452-9.754-22.651-21.793-30.949-35.362
		C23.606,223.858,22.9,221.827,20.915,220.92z"/>
	<path fill-rule="evenodd" clip-rule="evenodd" fill="#F6F6F6" d="M116.868,91.064c-7.544-13.176-15.074-26.361-22.639-39.525
		c-4.517-7.86-9.082-15.692-13.642-23.528c-1.322-2.271-0.522-3.653,1.662-4.767c13.681-6.979,27.905-12.193,43.211-14.384
		c8.056-1.152,16.072-2.068,24.229-1.943c30.519,0.465,58.016,10.05,82.483,27.984c27.626,20.249,44.777,47.764,52.956,80.75
		c4.37,17.628,4.848,35.542,1.99,53.7c-5.248,33.348-20.76,60.932-45.101,83.811c-5.788,5.44-12.532,9.775-19.146,14.21
		c-2.958,1.981-4.077,0.164-5.328-2.044c-5.045-8.903-10.13-17.784-15.224-26.66c-6.802-11.851-13.625-23.689-20.439-35.533
		c1.537-1.174,3.23-0.582,4.795-0.249c10.204,2.172,22.849-3.961,27.676-12.854c6.371-11.738,5.302-21.921-2.946-31.979
		c-6.758-8.241-19.933-11.198-30.185-7.155c-7.128,2.812-12.106,7.99-15.32,14.947c-0.696,1.506-0.411,3.848-2.927,4.104
		c-0.969-1.005-1.938-2.009-2.907-3.013c-1.64-1.822-0.286-3.461,0.432-5.026c8.938-19.481,34.091-25.598,51.104-12.461
		c3.927,3.031,4.356,2.916,6.086-1.637c6.785-17.857,1.715-37.218-13.544-47.596c-15.56-10.584-34.812-11.197-50.622,1.257
		c-2.47,1.944-4.45,4.481-7.297,5.954c-2.076,0.157-3.315-1.272-4.611-2.513c-6.211-5.954-13.254-10.32-21.891-11.775
		C118.506,92.934,116.948,92.944,116.868,91.064z"/>
	<path fill-rule="evenodd" clip-rule="evenodd" fill="#AA2B28" d="M116.868,91.064c11.652,1.827,20.959,7.883,29.059,16.116
		c1.713,1.728,1.547,3.968,1.551,6.101c0.073,33.418,0.004,66.836,0.055,100.254c0.002,1.509-0.121,2.986-0.613,4.421
		c-0.777,1.099-1.601,0.743-2.545,0.18c-22.347-13.349-43.887-27.738-60.264-48.464c-9.27-11.73-16.029-24.604-14.476-40.199
		c2.243-22.53,20.099-38.401,42.75-38.374C113.878,91.101,115.373,91.076,116.868,91.064z"/>
	<path fill-rule="evenodd" clip-rule="evenodd" fill="#841B17" d="M146.919,217.956c-1.626-1.47-0.983-3.421-0.985-5.167
		c-0.03-35.203-0.014-70.406-0.007-105.608c11.642-13.712,26.311-18.749,43.807-14.751c17.58,4.016,27.924,15.54,31.581,32.843
		c2.166,10.25-0.234,20.053-5.394,29.302c-22.435-21.874-51.315-7.208-55.855,12.361c-3.559,12.196-0.833,22.929,8.03,31.874
		c2.614,2.639,2.404,3.572-0.546,5.53C160.685,208.896,154.389,214.307,146.919,217.956z"/>
	<path fill-rule="evenodd" clip-rule="evenodd" fill="#851B17" d="M162.973,169.948c3.263-9.994,9.12-17.611,19.519-20.879
		c11.329-3.562,23.735,0.252,30.938,9.352c7.228,9.132,8.186,21.571,2.446,31.771c-5.733,10.191-17.078,15.601-29.13,13.859
		c-1.632-0.235-3.244-0.607-4.865-0.917C167.05,196.367,162.288,188.009,162.973,169.948z"/>
	<path fill-rule="evenodd" clip-rule="evenodd" fill="#FDFCFC" d="M76.037,131.052c0.067-15.146,17.604-32.628,32.94-33.016
		c2.155-0.055,3.697,0.493,3.819,2.8c0.102,1.928-1.006,2.863-3.013,3.181c-15.825,2.51-25.157,11.679-27.742,27.525
		c-0.371,2.271-1.508,3.363-3.596,3.083C76.525,134.368,75.692,132.938,76.037,131.052z"/>
	<path fill-rule="evenodd" clip-rule="evenodd" fill="#F6F6F6" d="M210.937,176.129c1.214,4.428-1.018,5.134-4.97,5.046
		c-9.884-0.223-9.888-0.055-9.912,9.697c-0.012,4.421-4.93,7.093-9.008,4.913c-1.593-0.851-0.847-2.317-0.975-3.53
		c-0.378-3.576,1.538-8.137-0.899-10.5c-2.212-2.144-6.693-0.852-10.1-0.564c-5.208,0.44-3.75-3.049-4.053-5.773
		c-0.361-3.265,0.438-4.64,4.188-4.593c10.643,0.134,10.907-0.06,10.723-10.596c-0.078-4.486,2.249-4.097,5.21-4.197
		c3.22-0.108,5.125,0.066,5.036,4.34c-0.218,10.473,0.042,10.745,10.423,10.431C211.091,170.666,211.646,172.548,210.937,176.129z"
		/>
</g>
</svg>
