<?xml version="1.0" encoding="utf-8"?>
<!-- Generator: Adobe Illustrator 16.0.0, SVG Export Plug-In . SVG Version: 6.00 Build 0)  -->
<!DOCTYPE svg PUBLIC "-//W3C//DTD SVG 1.1//EN" "http://www.w3.org/Graphics/SVG/1.1/DTD/svg11.dtd">
<svg version="1.1" id="Layer_1" xmlns="http://www.w3.org/2000/svg" xmlns:xlink="http://www.w3.org/1999/xlink" x="0px" y="0px"
	 width="295.932px" height="295.847px" viewBox="0 0 295.932 295.847" enable-background="new 0 0 295.932 295.847"
	 xml:space="preserve">
<g>
	<path fill-rule="evenodd" clip-rule="evenodd" fill="#F7F7F7" d="M275.956,220.971c-12.271,22.808-30.141,40.096-52.062,53.612
		c-15.025,9.266-31.22,15.297-48.416,18.583c-13.177,2.518-26.425,3.358-39.984,2.11c-17.749-1.633-34.521-6.255-50.543-13.57
		c-12.688-5.792-24.309-13.484-34.69-22.938c-13.754-12.527-25.62-26.635-33.849-43.331c-6.957-14.116-12.637-28.831-14.436-44.704
		c-0.651-5.744-1.75-11.474-1.913-17.23C-0.59,130.458,3.7,108.395,13.248,87.296c11.236-24.831,28.379-44.622,50.239-60.567
		c1.057-0.77,2.008-1.805,3.493-1.737c0.351,0.419,0.508,0.899,0.474,1.444c-0.645,2.304-2.675,3.335-4.378,4.603
		C30.164,55.544,10.49,88.148,4.834,128.686c-5.004,35.865,2.851,69.252,23,99.391c22.394,33.495,53.704,54.282,93.211,61.695
		c43.714,8.203,83.244-2.272,118.136-29.746c12.511-9.85,22.89-21.763,31.194-35.416c1.027-1.688,1.979-3.524,4.134-4.117
		C275.056,220.458,275.538,220.618,275.956,220.971z"/>
	<path fill-rule="evenodd" clip-rule="evenodd" fill="#F7F7F7" d="M66.982,25.999c0-0.336-0.001-0.671-0.002-1.007
		c6.336-5.106,13.507-8.715,20.911-11.995c20.439-9.054,41.811-13.611,64.138-12.931c19.868,0.604,38.948,5.033,57.028,13.455
		c28.799,13.413,51.513,33.454,66.899,61.467c-0.425,0.352-0.912,0.507-1.462,0.469c-2.497-0.762-3.405-3.033-4.661-4.957
		c-23.903-36.625-57.48-58.428-100.635-65.264c-34.434-5.454-66.414,1.925-96.374,19.232C71.09,25.47,69.436,27.459,66.982,25.999z"
		/>
	<path fill-rule="evenodd" clip-rule="evenodd" fill="#F6F6F6" d="M274.95,74.989c0.335,0,0.671-0.001,1.006-0.001
		c6.935,10.298,10.718,21.845,14.256,33.652c4.338,14.474,6.2,29.168,5.614,44.099c-0.545,13.866-2.56,27.567-7.483,40.751
		c-3.531,9.456-6.311,19.194-12.387,27.481c-0.335-0.001-0.671-0.002-1.006-0.002c-1.568-2.736,0.425-4.804,1.492-6.898
		c6.855-13.462,11.469-27.656,13.981-42.521c5.189-30.699,0.215-59.9-13.089-87.875C276.056,80.983,273.37,78.524,274.95,74.989z"/>
	<path fill-rule="evenodd" clip-rule="evenodd" fill="#FEFEFE" d="M274.95,74.989c3.337,8.647,8.078,16.686,10.859,25.588
		c3.504,11.217,6.025,22.542,7.307,34.299c2.141,19.634-0.739,38.523-6.18,57.231c-1.808,6.219-4.437,12.12-7.048,18.027
		c-1.605,3.631-4.026,6.889-4.938,10.835c-4.177,5.733-8.196,11.59-12.558,17.179c-16.528,21.18-37.42,36.455-62.549,45.994
		c-16.927,6.426-34.455,10.012-52.498,9.706c-32.442-0.548-62.016-10.2-87.945-30.027c-23.179-17.724-39.555-40.562-49.188-68.006
		c-4.049-11.535-6.283-23.544-7.422-35.894c-2.698-29.252,3.695-56.415,17.33-81.963C30.901,57.757,46.088,41.204,64.884,28.03
		c0.787-0.552,1.402-1.349,2.098-2.031c8.664-4.14,16.662-9.575,25.741-12.925c14.042-5.182,28.293-8.881,43.343-10.254
		c27.969-2.55,54.096,3.224,78.829,15.739c23.583,11.932,42.474,29.226,56.361,51.854C272.26,72.05,272.964,74.082,274.95,74.989z"
		/>
	<path fill-rule="evenodd" clip-rule="evenodd" fill="#F6F6F6" d="M133.953,113.762c-7.706-14.617-16.388-28.672-24.677-42.955
		c-8.613-14.838-16.927-29.85-25.535-44.691c-1.157-1.995-1.52-2.828,0.849-3.998c15.154-7.485,31.014-12.304,47.875-14.217
		c16.009-1.816,31.674-0.665,47.338,2.841c19.293,4.32,36.736,12.626,52.522,24.263c27.585,20.333,44.752,47.822,52.913,80.812
		c4.319,17.461,4.713,35.216,2.05,53.229c-4.064,27.499-15.914,51.168-33.362,72.225c-7.962,9.608-17.698,17.483-28.215,24.32
		c-2.6,1.69-3.874,0.556-5.052-1.542c-5.177-9.219-10.273-18.483-15.521-27.661c-9.247-16.177-18.577-32.308-27.913-48.433
		c-0.299-0.517-1.052-0.771-1.593-1.147c0.151-2.683,2.285-3.904,4.039-5.343c18.307-15.01,36.442-30.225,54.676-45.322
		c0.644-0.533,1.172-1.168,1.632-1.857c1.786-3.578-0.489-5.511-2.929-7.448c-10.822-8.595-22.643-15.504-35.278-21.051
		c-1.497-0.657-3.183-1.041-4.091-2.628c-0.436-1.524,0.109-2.921,0.551-4.333c1.23-2.651,1.902-5.473,2.509-8.313
		c3.893-12.79,7.746-25.591,10.013-38.851c-6.955,11.668-11.203,24.401-14.899,37.359c-1.184,3.047-1.974,6.2-2.575,9.409
		c-0.303,1.31-0.677,2.571-2.123,3.094c-6.278-0.482-12.377-2.136-18.638-2.852c-5.499-0.63-10.357-0.335-14.971,3.345
		c-4.523,3.608-9.516,6.647-14.294,9.947C137.728,113.018,136.26,114.782,133.953,113.762z"/>
	<path fill-rule="evenodd" clip-rule="evenodd" fill="#58707D" d="M194.159,102.777c14.411,6.226,28.095,13.685,40.379,23.57
		c3.004,2.417,4.756,4.983,2.484,8.793c-0.972-0.759-0.962-2.972-3.357-0.949c-20.34,17.171-40.699,34.323-61.159,51.353
		c-4.715,3.925-9.047,8.364-14.501,11.364c-1.222,0.341-2.446,0.646-3.732,0.515c-15.042-6.988-29.99-14.157-45.534-20.036
		c-14.055-5.316-28.442-9.052-43.325-10.972c-1.608-0.208-3.376-0.028-4.579-1.51c13.878-9.715,27.754-19.434,41.636-29.144
		c10.491-7.338,20.989-14.666,31.483-22c6.882-4.659,13.827-9.228,20.61-14.026c2.433-1.721,4.872-2.66,7.85-2.576
		c8.35,0.237,16.584,1.12,24.547,3.808c2.02,3.352,0.624,6.198-1.317,8.963c-1.834,1.113-3.562,0.17-5.261-0.378
		c-3.491-1.129-6.986-2.195-10.612-2.825c-6.823-1.188-12.796-0.276-18.771,4.086c-16.679,12.175-33.622,23.999-50.546,35.767
		c24.082,0.462,45.333,8.663,63.922,23.813c2.9,2.365,4.918,2.472,7.766,0.128c14.785-12.172,29.522-24.403,44.385-36.483
		c4.552-3.699,4.372-4.007-0.745-7.236c-8.16-5.149-16.949-9.155-25.262-14.036C190.309,108.917,191.221,105.478,194.159,102.777z"
		/>
	<path fill-rule="evenodd" clip-rule="evenodd" fill="#3D515B" d="M60.834,164.906c18.231,0.895,35.455,6.041,52.258,12.706
		c14.31,5.677,28.496,11.677,41.922,19.298c2.01,0.332,2.007,1.714,1.521,3.169c-0.426,1.278-1.361,1.651-2.593,0.912
		c-11.22-4.981-22.44-9.962-33.658-14.947c-1.987-0.883-3.612-1.665-5.765,0.386c-8.309,7.912-16.942,15.484-25.335,23.31
		c-10.325,9.626-19.489,20.054-22.649,34.427c-1.267,5.765-0.904,11.57-0.54,17.751c-4.153-1.293-5.979-3.635-5.843-7.947
		c0.423-13.315,5.086-24.909,13.429-35.188c7.173-8.838,15.844-16.118,24.215-23.721c4.418-4.013,8.744-8.128,13.555-12.61
		c-15.468-6.402-30.628-11.435-46.697-13.364C60.987,168.646,60.986,168.653,60.834,164.906z"/>
	<path fill-rule="evenodd" clip-rule="evenodd" fill="#4D636E" d="M157.979,195.974c26.024-21.716,52.05-43.434,78.333-65.366
		c1.216,1.336,0.404,3.065,0.71,4.533c-18.743,15.669-37.491,31.335-56.222,47.021c-1.775,1.485-3.446,3.094-5.166,4.646
		c-5.909,4.707-11.818,9.416-17.728,14.123C155.221,199.239,156.283,197.602,157.979,195.974z"/>
	<path fill-rule="evenodd" clip-rule="evenodd" fill="#627782" d="M157.979,195.974c-0.734,1.643-1.858,3.278-0.072,4.957
		c-1.296,1.713-2.623,1.342-3.964,0.06c2.912-0.69,2.321-2.299,1.07-4.08C155.743,195.774,156.906,196.016,157.979,195.974z"/>
	<path fill-rule="evenodd" clip-rule="evenodd" fill="#2A3B43" d="M190.814,88.816c3.255-13.102,7.838-25.71,14.165-37.651
		c0.631-1.189,1.26-3.312,2.95-2.643c1.652,0.653,0.807,2.63,0.51,4.041c-2.735,13.019-6.63,25.72-10.567,38.41
		C194.072,93.982,191.572,93.219,190.814,88.816z"/>
	<path fill-rule="evenodd" clip-rule="evenodd" fill="#293A42" d="M184.919,109.915c1.153-2.875,2.114-5.793,2.041-8.947
		c0.411-0.982,0.821-1.965,1.231-2.947c3.248-2.762,4.809-2.5,6.989,1.174c-0.341,1.194-0.681,2.389-1.021,3.583
		c-1.034,3.378-2.069,6.756-3.104,10.135c-0.504,5.082-1.685,9.867-5.848,13.35c-1.48-0.551-2.896-1.194-3.75-2.639
		C181.395,118.747,182.074,114.057,184.919,109.915z"/>
	<path fill-rule="evenodd" clip-rule="evenodd" fill="#5A717D" d="M195.181,99.195c-2.122-1.63-4.292-2.974-6.989-1.174
		c0.502-3.174,1.102-6.321,2.623-9.205c1.589,3.218,3.972,3.839,7.058,2.157C197.431,93.862,196.771,96.682,195.181,99.195z"/>
	<path fill-rule="evenodd" clip-rule="evenodd" fill="#3D515B" d="M184.919,109.915c-0.958,4.708-1.916,9.415-2.874,14.122
		c0.817,0.924,1.673,1.791,2.973,1.994c2.926-3.952,3.475-8.998,6.037-13.118c8.208,2.028,14.896,7.147,22.234,10.94
		c0.585,0.303,1.092,0.756,1.663,1.092c8.969,5.28,8.871,5.155,0.927,11.516c-13.959,11.177-27.806,22.496-41.653,33.81
		c-5.649,4.615-5.598,4.683-11.374,0.24c-18.849-14.496-39.872-22.825-63.931-22.561c-0.281,0.003-0.564-0.166-1.576-0.484
		c7.163-5.16,13.917-10.096,20.745-14.929c11.636-8.235,23.4-16.293,34.952-24.646c7.167-5.183,14.596-2.755,21.974-1.281
		C178.401,107.286,181.623,108.788,184.919,109.915z"/>
	<path fill-rule="evenodd" clip-rule="evenodd" fill="#3D515B" d="M131.961,162.119c-0.215,6.704-8.353,13.582-14.358,12.784
		c-4.292-0.569-6.563-4.118-5.339-8.343c1.717-5.923,7.998-10.183,14.11-9.587C129.906,157.318,131.636,159.363,131.961,162.119z"/>
	<path fill-rule="evenodd" clip-rule="evenodd" fill="#18272F" d="M185.018,126.03c-2.814,2.055-3.016,0.21-2.973-1.994
		C183.562,123.917,184.893,124.076,185.018,126.03z"/>
	<path fill-rule="evenodd" clip-rule="evenodd" fill="#293A42" d="M119.898,170.979c-2.663,0.138-4.025-1.024-3.918-3.789
		c0.137-3.548,4.507-7.49,8.152-7.127c2.482,0.247,3.868,1.78,3.77,4.316C127.765,167.92,123.857,171.081,119.898,170.979z"/>
</g>
</svg>
