<?xml version="1.0" encoding="utf-8"?>
<!-- Generator: Adobe Illustrator 16.0.0, SVG Export Plug-In . SVG Version: 6.00 Build 0)  -->
<!DOCTYPE svg PUBLIC "-//W3C//DTD SVG 1.1//EN" "http://www.w3.org/Graphics/SVG/1.1/DTD/svg11.dtd">
<svg version="1.1" id="Layer_1" xmlns="http://www.w3.org/2000/svg" xmlns:xlink="http://www.w3.org/1999/xlink" x="0px" y="0px"
	 width="295.932px" height="295.847px" viewBox="0 0 295.932 295.847" enable-background="new 0 0 295.932 295.847"
	 xml:space="preserve">
<g>
	<path fill-rule="evenodd" clip-rule="evenodd" fill="#F7F7F7" d="M275.956,220.971c-12.271,22.808-30.141,40.096-52.062,53.612
		c-15.025,9.266-31.22,15.297-48.416,18.583c-13.177,2.518-26.425,3.358-39.984,2.11c-17.749-1.633-34.521-6.255-50.543-13.57
		c-12.688-5.792-24.309-13.484-34.69-22.938c-13.754-12.527-25.62-26.635-33.849-43.331c-6.957-14.116-12.637-28.831-14.436-44.704
		c-0.651-5.744-1.75-11.474-1.913-17.23C-0.59,130.458,3.7,108.395,13.248,87.296c11.236-24.831,28.379-44.622,50.239-60.567
		c1.057-0.77,2.008-1.805,3.493-1.737c0.351,0.419,0.508,0.899,0.474,1.444c-0.645,2.304-2.675,3.335-4.378,4.603
		C30.164,55.544,10.49,88.148,4.834,128.686c-5.004,35.865,2.851,69.252,23,99.391c22.394,33.495,53.704,54.282,93.211,61.695
		c43.714,8.203,83.244-2.272,118.136-29.746c12.511-9.85,22.89-21.763,31.194-35.416c1.027-1.688,1.979-3.524,4.134-4.117
		C275.056,220.458,275.538,220.618,275.956,220.971z"/>
	<path fill-rule="evenodd" clip-rule="evenodd" fill="#F7F7F7" d="M66.982,25.999c0-0.336-0.001-0.671-0.002-1.007
		c6.336-5.106,13.507-8.715,20.911-11.995c20.439-9.054,41.811-13.611,64.138-12.931c19.868,0.604,38.948,5.033,57.028,13.455
		c28.799,13.413,51.513,33.454,66.899,61.467c-0.425,0.352-0.912,0.507-1.462,0.469c-2.497-0.762-3.405-3.033-4.661-4.957
		c-23.903-36.624-57.48-58.428-100.635-65.264c-34.434-5.454-66.414,1.925-96.374,19.232C71.09,25.47,69.436,27.459,66.982,25.999z"
		/>
	<path fill-rule="evenodd" clip-rule="evenodd" fill="#F6F6F6" d="M274.95,74.989c0.335,0,0.671-0.001,1.006-0.001
		c6.935,10.298,10.718,21.845,14.256,33.652c4.338,14.474,6.2,29.168,5.614,44.099c-0.545,13.866-2.56,27.567-7.483,40.751
		c-3.531,9.456-6.311,19.194-12.387,27.481c-0.335-0.001-0.671-0.002-1.006-0.002c-1.568-2.736,0.425-4.804,1.492-6.898
		c6.855-13.462,11.469-27.656,13.981-42.521c5.189-30.699,0.215-59.9-13.089-87.875C276.056,80.983,273.37,78.524,274.95,74.989z"/>
	<path fill-rule="evenodd" clip-rule="evenodd" fill="#FEFEFE" d="M274.95,74.989c3.337,8.647,8.078,16.686,10.859,25.588
		c3.504,11.217,6.025,22.542,7.307,34.299c2.141,19.634-0.739,38.523-6.18,57.231c-1.808,6.219-4.437,12.12-7.048,18.027
		c-1.605,3.631-4.026,6.889-4.938,10.835c-4.177,5.733-8.196,11.59-12.558,17.179c-16.528,21.18-37.42,36.455-62.549,45.994
		c-16.927,6.426-34.455,10.012-52.498,9.706c-32.442-0.548-62.016-10.2-87.945-30.027c-23.179-17.724-39.555-40.562-49.188-68.006
		c-4.049-11.535-6.283-23.544-7.422-35.894c-2.698-29.252,3.695-56.415,17.33-81.963C30.901,57.757,46.088,41.204,64.884,28.03
		c0.788-0.552,1.402-1.349,2.098-2.031c8.664-4.14,16.662-9.575,25.741-12.925c14.042-5.182,28.293-8.881,43.343-10.254
		c27.969-2.55,54.096,3.224,78.829,15.739c23.583,11.932,42.474,29.226,56.361,51.854C272.26,72.05,272.964,74.082,274.95,74.989z"
		/>
	<path fill-rule="evenodd" clip-rule="evenodd" fill="#F6F6F6" d="M106.915,68.015c2.035-0.188,1.442-1.351,0.837-2.405
		c-4.192-7.316-8.381-14.632-12.625-21.917c-3.407-5.847-6.865-11.665-10.353-17.464c-1.312-2.182-0.92-3.69,1.381-4.835
		c11.968-5.958,24.538-10.164,37.71-12.327c8.821-1.449,17.711-2.349,26.723-2.122c30.329,0.766,57.649,10.321,81.955,28.241
		c27.454,20.241,44.477,47.641,52.643,80.459c4.39,17.642,4.768,35.553,2.044,53.735c-4.121,27.5-16.236,50.977-33.484,72.218
		c-0.808,0.995-2.051,1.638-3.091,2.444c-2.88-0.814-3.328-3.552-4.214-5.736c-1.878-4.627-4.431-8.929-6.273-13.556
		c-0.968-2.43-2.364-2.949-4.624-1.726c-2.776,1.503-5.7,2.69-8.623,3.886c-4.022,1.646-8.078,3.297-7.547,8.889
		c0.057,0.591-0.71,1.072-1.31,1.4c-0.811,0.121-1.349-0.28-1.767-0.917c-0.974-2.466-1.787-4.997-2.893-7.41
		c-1.165-2.543-2.754-4.567-5.889-4.573c-1.382-0.073-2.504,0.884-3.845,0.983c-0.759-0.186-1.142-0.71-1.307-1.436
		c-0.268-6.531-4.111-11.711-6.626-17.385c-0.686-1.547-2.013-1.289-3.37-0.577c-1.035,0.541-1.953,2.039-3.427,0.773
		c-5.915-10.502-11.795-21.025-17.764-31.498c-2.115-3.711-4.785-7.112-6.201-11.211c5.773-0.41,8.754,3.951,11.966,7.447
		c5.477,5.96,8.196,13.646,11.986,20.661c1.121,2.076,2.198,6.338,4.231,5.228c2.863-1.566-0.395-4.543-1.34-6.733
		c-2.502-5.794-4.818-11.682-8.512-16.908c-5.433-7.687-12.361-13.362-21.114-16.903c-2.229-0.901-4.994-0.916-6.5-3.297
		c-0.721-6.001-4.743-10.421-7.444-15.473c-0.456-0.854-1.423-1.411-1.547-2.494c3.666-4.935,7.289-9.694,7.072-16.503
		c-0.316-9.963-4.512-17.047-14.217-18.97c-7.639-1.515-11.636-4.621-13.58-12.378c-1.878-7.496-7.883-12.484-14.753-16.116
		C109.6,70.651,107.189,70.599,106.915,68.015z"/>
	<path fill-rule="evenodd" clip-rule="evenodd" fill="#69C6BE" d="M93.057,141.002c-11.477-0.29-22.962-0.4-34.43-0.915
		c-13.983-0.628-22.777-9.642-22.641-22.765c0.107-10.313,6.945-18.196,18.52-20.125c5.197-0.866,7.557-2.688,9.114-8.031
		c4.985-17.098,20.378-22.748,34.208-23.127c0.761-0.021,1.536,0.503,2.305,0.772c-2.183,2.538-2.638,5.522-2.624,8.78
		c0.072,15.93,0.079,31.86,0.01,47.79c-0.025,5.797-0.494,11.57-1.956,17.219C94.858,141.55,94.003,141.562,93.057,141.002z"/>
	<path fill-rule="evenodd" clip-rule="evenodd" fill="#019FA3" d="M94.978,140.601c1.594-23.154,0.811-46.343,0.908-69.517
		c0.014-3.334,1.217-4.449,4.248-4.272c2.261,0.401,4.521,0.803,6.782,1.203c12.164,4.803,20.208,13.139,22.558,26.338
		c0.309,1.734,1.204,2.542,3.026,2.605c1.478,0.051,2.959,0.404,4.41,0.746c8.411,1.979,15.568,5.871,17.687,14.899
		c2.117,9.025-0.041,17.182-7.452,23.421c-2.155,3.634-5.917,4.518-9.576,5.442c-6.983,1.764-14.124,0.859-21.198,1.008
		c-5.442,0.114-10.887,0.029-16.333-0.029C98.159,142.355,96.173,142.558,94.978,140.601z"/>
	<path fill-rule="evenodd" clip-rule="evenodd" fill="#6D6E71" d="M226.116,265.087c-7.497,5.53-15.776,9.602-24.321,13.218
		c-2.003,0.849-3.374,0.904-4.584-1.099c-5.653-9.36-9.399-19.64-14.237-29.392c-0.519-1.046-0.428-1.997,0.695-2.457
		c6.978-2.865,13.455-6.875,20.743-9.008c0.168-0.049,0.479,0.392,0.722,0.604c1.236,0.81,2.507,1.565,3.77,2.334
		c1.686,0.737,3.558,0.292,5.276,0.834c0.463,0.163,0.873,0.409,1.252,0.719C219.611,248.651,223.845,256.437,226.116,265.087z"/>
	<path fill-rule="evenodd" clip-rule="evenodd" fill="#404041" d="M226.116,265.087c-4.23-7.837-8.009-15.885-11.202-24.202
		c-0.107-2.144,1.517-2.981,2.976-3.941c0.214-0.45,0.713-0.999,0.597-1.336c-2.119-6.158,2.456-7.352,6.534-9.063
		c3.676-1.543,7.356-3.129,10.847-5.039c2.649-1.451,3.867-1.125,5.115,1.776c3.015,7.011,6.422,13.853,9.672,20.762
		C243.645,252.422,235.375,259.332,226.116,265.087z"/>
	<path fill-rule="evenodd" clip-rule="evenodd" fill="#404041" d="M94.978,140.601c1.686,0.149,3.372,0.298,5.058,0.447
		c9.338,8.919,20.856,10.166,32.988,9.539c4.814-0.25,9.656-0.148,14.48,0.012c2.969,0.098,6.042,0.072,8.4,2.405
		c2.295,0.927,4.583,1.871,6.887,2.777c10.8,4.246,19.089,11.294,24.265,21.791c2.79,5.657,5.508,11.351,8.283,17.015
		c0.86,1.755,1.519,3.517-0.62,4.763c-2.358,1.376-3.773-0.056-4.738-2.016c-2.716-5.51-5.215-11.129-8.062-16.566
		c-3.851-7.359-8.957-13.569-16.942-16.817c-8.186-5.137-17.334-6.166-26.694-6.178c-9.12-0.012-18.274,0.481-27.23-1.813
		c-8.339-2.138-14.647-6.783-17.995-14.957C93.697,140.869,94.337,140.735,94.978,140.601z"/>
	<path fill-rule="evenodd" clip-rule="evenodd" fill="#6D6E71" d="M188.941,206.66c6.352-4.293,6.359-4.297,9.722,2.94
		c1.447,3.115,2.792,6.278,4.308,9.359c0.846,1.717,1.438,3.305-0.045,4.942c-0.71,2.954,0.84,6.2-1.166,8.985
		c-5.887,2.637-11.891,5.045-17.617,7.993c-3.379,1.739-4.345,0.314-5.021-2.521C176.142,225.854,180.103,215.501,188.941,206.66z"
		/>
	<path fill-rule="evenodd" clip-rule="evenodd" fill="#6D6E71" d="M203.726,224.89c0.896-0.954,1.663-2.126,3.25-1.887
		c2.898,4.983,6.188,9.795,6.809,15.765c-0.092,0.518-0.314,0.974-0.659,1.369c-1.56,0.65-3.009,0.231-4.431-0.459
		c-1.076-0.688-2.203-1.335-2.273-2.83c-0.88-1.933-1.76-3.864-2.64-5.796C201.663,229.018,201.695,226.962,203.726,224.89z"/>
	<path fill-rule="evenodd" clip-rule="evenodd" fill="#E8E8E8" d="M203.726,224.89c-1.03,2.063-0.73,4.115,0.056,6.162
		c-0.674,0.611-1.348,1.224-2.021,1.836c0.819-2.94-1.77-6.321,1.166-8.986C203.192,224.231,203.459,224.561,203.726,224.89z"/>
	<path fill-rule="evenodd" clip-rule="evenodd" fill="#F7F7F7" d="M206.421,236.848c0.825,0.778,1.65,1.558,2.475,2.338
		c0.088,0.801,0.038,1.432-1.017,0.827c-1.396-0.589-2.349-1.575-2.745-3.06C205.563,236.918,205.991,236.883,206.421,236.848z"/>
	<path fill-rule="evenodd" clip-rule="evenodd" fill="#404041" d="M209.204,199.168c10.847,0.519,19.521,4.528,25.932,13.141
		c1.862,2.5,2.334,4.055-1.215,5.324c-3.261,1.167-6.218,3.479-9.533,4.119c-3.407,0.656-5.962,6.69-10.521,1.581
		c-2.581-2.891-7.075-3.671-8.247-8.411c-0.897-3.628-2.895-7.038-4.729-10.364c-1.587-2.875-0.937-4.191,2.213-4.567
		C205.243,199.736,207.374,199.417,209.204,199.168z"/>
	<path fill-rule="evenodd" clip-rule="evenodd" fill="#FEFEFE" d="M155.904,153.004c-11.028-1.964-22.17-0.542-33.239-1.125
		c-8.963-0.473-17.545-2.092-22.629-10.831c8.753-0.023,17.511-0.232,26.258-0.012c7.459,0.187,14.409-1.221,20.85-5.012
		c2.36,0.03,2.777,2.047,3.651,3.586c2.034,3.582,3.963,7.228,6.121,10.733C157.9,151.941,157.87,152.731,155.904,153.004z"/>
	<path fill-rule="evenodd" clip-rule="evenodd" fill="#6D6E71" d="M121.398,39.938c15.124,0.449,30.851,15.997,31.651,30.72
		c0.18,3.303-1.726,3.288-3.841,3.791c-3.171,0.755-2.11-1.722-2.329-3.02c-2.372-14.079-12.189-23.622-26.265-25.391
		c-1.584-0.199-3.366,0.354-2.888-2.527C118.142,41.018,118.613,39.24,121.398,39.938z"/>
	<path fill-rule="evenodd" clip-rule="evenodd" fill="#6E6F72" d="M144.165,72.81c0.321,1.97-0.571,2.899-2.642,3.215
		c-2.62,0.399-2.388-1.243-2.659-2.943c-1.787-11.197-8.781-17.914-19.667-19.103c-1.26-0.138-3.336,0.742-3.053-1.896
		c0.207-1.928,0.712-3.309,3.26-3.432C131.053,48.087,144.445,60.991,144.165,72.81z"/>
	<path fill-rule="evenodd" clip-rule="evenodd" fill="#707174" d="M114.668,62.419c-0.486-4.438,1.744-5.016,5.145-4.67
		c8.334,0.846,15.301,8.13,15.404,16.217c0.027,2.093-0.344,3.57-2.731,3.89c-2.994,0.4-2.047-1.783-2.18-3.232
		C129.541,66.271,124.642,62.395,114.668,62.419z"/>
	<path fill-rule="evenodd" clip-rule="evenodd" fill="#444445" d="M212.958,238.933c-0.736-5.782-5.408-10.086-5.982-15.93
		c3.599-1.018,5.583,0.912,6.835,3.9c1.183,2.82,3.117,5.405,2.938,8.692C216.293,237.626,216.379,240.27,212.958,238.933z"/>
	<path fill-rule="evenodd" clip-rule="evenodd" fill="#E2E2E2" d="M212.958,238.933c2.148-0.107,2.654-2.08,3.791-3.337
		c0.38,0.449,0.761,0.898,1.141,1.348c-0.109,1.979-1.877,2.708-2.976,3.941c-0.334-0.032-0.668-0.064-1.001-0.097
		c-0.431-0.284-1.042-0.344-1.195-0.97C212.845,239.537,212.925,239.241,212.958,238.933z"/>
	<path fill-rule="evenodd" clip-rule="evenodd" fill="#ECECEC" d="M212.718,239.819c0.398,0.323,0.797,0.646,1.195,0.97
		c-2.074,0.227-4.216,0.986-6.034-0.775c0.339-0.276,0.678-0.552,1.018-0.827C210.17,239.397,211.443,239.608,212.718,239.819z"/>
</g>
</svg>
