<?xml version="1.0" encoding="utf-8"?>
<!-- Generator: Adobe Illustrator 16.0.0, SVG Export Plug-In . SVG Version: 6.00 Build 0)  -->
<!DOCTYPE svg PUBLIC "-//W3C//DTD SVG 1.1//EN" "http://www.w3.org/Graphics/SVG/1.1/DTD/svg11.dtd">
<svg version="1.1" id="Layer_1" xmlns="http://www.w3.org/2000/svg" xmlns:xlink="http://www.w3.org/1999/xlink" x="0px" y="0px"
	 width="295.621px" height="295.89px" viewBox="0 0 295.621 295.89" enable-background="new 0 0 295.621 295.89"
	 xml:space="preserve">
<g>
	<path fill-rule="evenodd" clip-rule="evenodd" fill="#F7F7F7" d="M274.881,73.934c2.988,2.755,4.821,6.318,6.382,9.931
		c7.06,16.346,12.372,33.05,13.851,51.07c1.669,20.342-0.8,39.785-7.005,59.179c-8.461,26.446-23.678,48.218-44.32,66.171
		c-16.436,14.294-35.366,24.252-56.67,29.938c-14.068,3.756-28.166,6.013-42.628,5.623c-20.079-0.539-39.338-4.961-57.617-13.425
		c-28.872-13.37-51.534-33.497-66.965-61.499c0.426-0.353,0.915-0.508,1.465-0.469c2.323,0.674,3.244,2.732,4.407,4.526
		c24.882,38.378,60.119,60.721,105.367,66.295c40.11,4.94,76.327-5.95,107.734-31.216c29.999-24.133,47.236-55.936,52.379-94.021
		c3.892-28.821-1.371-56.3-13.99-82.434c-1.286-2.664-3.21-5.116-3.15-8.304C274.223,74.76,274.479,74.306,274.881,73.934z"/>
	<path fill-rule="evenodd" clip-rule="evenodd" fill="#F7F7F7" d="M274.881,73.934c-0.001,0.336-0.003,0.673-0.005,1.01
		c-2.788,0.258-3.552-2.084-4.647-3.801c-22.74-35.633-54.997-57.768-96.399-65.18C128.208-2.206,87.452,9.386,52.188,39.834
		c-10.582,9.136-19.116,19.871-26.702,31.48c-1.081,1.655-1.986,3.524-4.148,4.105c-0.542,0.032-1.018-0.13-1.43-0.481
		c13.247-24.502,32.62-42.855,56.768-56.352c17.866-9.986,37.016-15.58,57.416-17.811c16.252-1.777,32.129-0.431,47.803,3.3
		c21.388,5.091,40.945,14.31,57.994,28.398c12.218,10.095,23.196,21.361,31.836,34.756
		C273.081,69.333,274.459,71.402,274.881,73.934z"/>
	<path fill-rule="evenodd" clip-rule="evenodd" fill="#F6F6F6" d="M19.908,74.938c0.336,0,0.671,0.001,1.007,0.001
		c1.568,2.736-0.441,4.792-1.489,6.898C12.708,95.347,7.972,109.513,5.448,124.37c-5.214,30.692-0.22,59.892,13.082,87.865
		c1.279,2.69,3.964,5.149,2.385,8.685c-0.335,0-0.671,0.001-1.007,0.002c-7.131-10.386-10.609-22.231-14.341-34.103
		c-4.289-13.643-5.75-27.544-5.55-41.616C0.3,125.306,4.7,106.208,12.824,87.97C14.854,83.412,16.819,78.888,19.908,74.938z"/>
	<path fill-rule="evenodd" clip-rule="evenodd" fill="#FEFEFE" d="M20.915,220.92c-3.097-8.386-7.73-16.087-10.483-24.664
		c-3.799-11.839-6.434-23.765-7.703-36.204c-2.274-22.267,1.698-43.384,9.011-64.207c2.538-7.225,6.746-13.665,9.175-20.906
		c5.29-5.516,8.699-12.395,13.46-18.343C50.75,36.138,71.104,21.333,95.471,11.943c17.342-6.683,35.366-10.307,53.922-9.886
		c25.248,0.573,49.015,6.863,71.133,19.531c11.21,6.419,21.309,14.147,30.374,23.108c7.751,7.662,14.919,15.996,20.298,25.666
		c0.923,1.66,1.694,3.673,3.679,4.582c3.348,8.66,8.097,16.714,10.876,25.632c3.503,11.238,6.017,22.585,7.291,34.364
		c2.129,19.67-0.521,38.674-6.283,57.306c-5.851,18.919-15.518,35.799-28.468,50.887c-8.391,9.775-17.871,18.213-28.477,25.372
		c-18.562,12.53-38.916,20.371-61.196,23.53c-42.283,5.995-79.802-5.124-113.063-31.177c-12.452-9.754-22.651-21.793-30.949-35.362
		C23.605,223.858,22.9,221.825,20.915,220.92z"/>
	<path fill-rule="evenodd" clip-rule="evenodd" fill="#F6F6F6" d="M104.965,64.116c-3.575-8.784-9.229-16.424-13.643-24.75
		c-2.539-4.792-5.201-9.541-8.175-14.067c-1.229-1.872-0.348-2.271,0.899-2.917c12.624-6.537,25.935-11.11,39.961-13.378
		c8.5-1.375,17.049-2.279,25.729-2.112c30.527,0.588,58.047,10.102,82.528,28.077c27.641,20.295,44.761,47.862,52.917,80.864
		c4.315,17.465,4.798,35.244,1.983,53.254c-5.158,33.005-20.33,60.422-44.283,83.252c-5.159,4.919-11.102,8.925-16.951,13.017
		c-2.702,1.89-4.099,0.928-5.453-1.47c-8.197-14.518-16.093-29.219-24.735-43.467c-8.311-13.7-15.576-27.988-24.108-41.571
		c-2.938-4.679-6.017-9.471-8.325-14.632c-0.776-1.737-1.572-4.248-4.369-4.274c-1.652-2.582-0.24-5.128,0.203-7.631
		c0.776-4.378,1.6-8.755,2.683-13.068c0.061-0.317,0.151-0.634,0.227-0.954c2.465-10.397,2.464-10.397-7.825-8.91
		c-3.271,0.396-6.461,1.432-9.804,1.229c-5.535-2.872-6.701-8.93-9.862-13.538c-0.077-2.727,2.109-4.028,3.687-5.647
		c2.674-2.743,5.362-5.468,7.846-8.391c2.268-1.795,2.75-4.424,3.276-7.024c2.095-10.365,4.173-20.733,6.218-31.104
		c2.376-10.477,2.376-10.477-8.749-9.485c-12.103,2.267-24.269,4.132-36.394,6.184c-1.342,0.652-2.123,2.008-3.401,2.747
		C106.313,64.615,105.611,64.615,104.965,64.116z"/>
	<path fill-rule="evenodd" clip-rule="evenodd" fill="#FDC30D" d="M145.863,103.947c-0.469,3.809-4.075,5.124-6.142,7.657
		c-1.522,1.866-3.319,3.508-4.993,5.25c-0.92,3.457-3.806,5.387-6.281,7.429c-3.72,3.069-7.127,6.432-10.558,9.787
		c-0.473,0.489-0.969,0.953-1.463,1.42c-0.813,0.785-1.598,1.598-2.374,2.423c-21.002,20.575-42.437,40.698-63.455,61.258
		c-6.28,6.144-12.723,12.157-19.064,18.26c-1.259,1.212-2.319,2.962-4.539,2.519c-3.853-5.591-6.932-11.568-9.05-18.029
		c4.852-7.268,11.637-12.689,17.871-18.631c1.076-1.024,2.366-1.832,3.428-2.895c10.702-10.704,21.67-21.135,32.528-31.676
		c18.853-18.305,38.032-36.267,56.839-54.618c1.214-1.185,2.296-3.063,4.579-2.117c1.065,1.347,0.838,3.129,1.564,4.59
		C136.547,101.914,141.323,102.753,145.863,103.947z"/>
	<path fill-rule="evenodd" clip-rule="evenodd" fill="#F79B1C" d="M132.957,91.933c-9.066,8.55-18.215,17.015-27.183,25.667
		c-22.154,21.375-44.01,43.066-66.455,64.131c-7.144,6.704-13.766,13.979-21.375,20.189c-3.345-6.654-5.529-13.694-6.973-20.98
		c1.46-3.395,4.854-4.922,7.248-7.417c14.874-15.502,30.771-29.964,46.155-44.949c17.514-17.06,35.475-33.66,52.844-51.136
		c0.421-0.022-0.545-0.886-0.231-0.298c0.162,0.304,0.062,0.437-0.303,0.397c-2.107-0.227-2.107-0.227-2.21-2.263
		c2.374-0.825,4.606-0.85,6.49,1.123c0.337,0.581,0.44,1.214,0.45,1.885c0.124,8.242,1.876,10.219,10.187,11.498
		c0.657,0.102,1.288,0.265,1.89,0.553c0.471,0.286,0.694,0.703,0.675,1.253C133.886,92.138,133.484,92.253,132.957,91.933z"/>
	<path fill-rule="evenodd" clip-rule="evenodd" fill="#F27721" d="M113.923,76.254c1.404,0.367,2.808,0.734,3.637,0.951
		c-7.99,8.383-16.179,17-24.407,25.577c-0.907,0.945-2.122,1.59-3.062,2.508c-15.568,15.188-30.697,30.86-46.812,45.444
		c-10.94,9.901-20.236,21.545-32.308,30.206c-2.215-6.675-2.713-13.637-3.481-20.559c-0.221-1.988,0.982-2.944,2.211-4.126
		c30.898-29.709,61.768-59.449,92.63-89.196c0.945-0.911,1.759-1.958,2.634-2.943c0.647-0.072,1.295-0.146,1.942-0.218
		C108.225,68.597,110.537,72.73,113.923,76.254z"/>
	<path fill-rule="evenodd" clip-rule="evenodd" fill="#E85250" d="M50.946,249.896c-4.925-4.093-9.259-8.728-12.874-14.022
		c0.514-2.278,2.354-3.571,3.839-5.115c14.545-15.127,29.967-29.373,45.172-43.805c11.097-10.534,21.284-22.047,33.241-31.683
		c1.8-1.451,3.48-3.118,4.52-5.279c2.028-1.138,2.576,0.118,2.881,1.774c-0.632,8.379,0.58,9.79,10.915,12.69
		c1.412,2.248-0.569,3.38-1.712,4.543c-16.178,16.475-33.008,32.276-49.841,48.073c-5.334,5.006-10.512,10.178-15.545,15.476
		c-5.278,5.555-11.518,10.047-16.769,15.617C53.792,249.205,52.738,250.474,50.946,249.896z"/>
	<path fill-rule="evenodd" clip-rule="evenodd" fill="#F06564" d="M50.946,249.896c4.577-4.087,9.301-8.021,13.703-12.287
		c15.537-15.057,30.746-30.457,46.511-45.268c9.458-8.885,18.865-17.785,27.709-27.278c0.411-0.332,0.839-0.375,1.29-0.086
		c0.787,0.953,0.8,2.132,0.986,3.274c0.973,5.982,3.455,8.373,9.337,8.994c0.827,0.088,1.656,0.062,2.297,0.709
		c-0.086,2.597-2.456,3.358-3.933,4.797c-10.665,10.395-21.376,20.742-32.073,31.104c-0.327,1.014-0.753,1.971-1.552,2.718
		c-0.747,0.801-1.497,1.599-2.274,2.373c-3.594,2.729-6.886,5.789-9.963,9.075c-10.484,11.193-22.377,20.931-33.015,31.966
		c-1.131,1.173-2.252,2.545-4.211,2.25C60.262,258.794,55.32,254.684,50.946,249.896z"/>
	<path fill-rule="evenodd" clip-rule="evenodd" fill="#D14A47" d="M124.766,150.837c-0.109,4.004-3.807,5.263-6.08,7.44
		c-1.755,1.681-3.775,3.192-5.548,4.926c-15.426,15.076-30.508,30.525-46.389,45.105c-9.78,8.98-18.675,18.844-28.677,27.564
		c-4.413-4.808-8.154-10.082-11.079-15.924c14.115-13.589,28.191-27.217,42.354-40.754c14.754-14.103,29.592-28.118,44.394-42.172
		c0.747,0.558,0.807,1.359,0.752,2.185c-0.357,5.374,2.329,8.562,7.256,10.165C122.819,149.721,123.995,149.869,124.766,150.837z"/>
	<path fill-rule="evenodd" clip-rule="evenodd" fill="#00625B" d="M65.757,262.237c13.797-13.252,27.593-26.506,41.394-39.756
		c1.792-1.72,3.42-3.646,5.76-4.697c0.258,0.219,0.612,0.463,0.622,0.749c0.283,8.394,5.527,11.321,12.984,11.831
		c0.779,0.568,0.649,1.243,0.232,1.953c-13.795,12.113-26.005,25.904-39.928,37.89c-1.523,1.312-2.942,2.782-5.237,1.874
		C75.851,269.536,70.599,266.216,65.757,262.237z"/>
	<path fill-rule="evenodd" clip-rule="evenodd" fill="#027971" d="M81.584,272.081c4.381-1.513,7.364-5.007,10.511-8.025
		c10.54-10.107,20.611-20.703,31.564-30.383c0.732-0.647,1.596-1.146,2.398-1.713c0.943,0.859,1.028,2.036,1.035,3.17
		c0.024,4.231,1.966,7.153,5.844,8.807c0.626,0.225,1.216,0.55,1.879,0.656c3.647,0.588,4.246,2.301,1.645,4.884
		c-7.541,7.485-14.586,15.501-22.793,22.272c-3.703,3.056-6.415,7.227-10.819,9.45C95.288,279.262,88.242,276.125,81.584,272.081z"
		/>
	<path fill-rule="evenodd" clip-rule="evenodd" fill="#3E9286" d="M102.848,281.199c3.023-4.208,7.112-7.331,10.799-10.887
		c7.999-7.712,15.546-15.892,23.355-23.96c-0.959-1.105-3.087,0.39-4.179-1.152c1.816-2.183,4.081-1.697,6.365-1.08
		c1.241,0.6,1.297,1.73,1.403,2.925c0.662,7.523,1.7,8.722,9.159,10.727c0.812,0.218,1.584,0.473,2.125,1.166
		c-0.677,3.278-3.741,4.491-5.792,6.538c-6.456,6.44-13.079,12.713-19.625,19.063c-1.304,1.264-2.401,2.693-4.641,2.136
		C115.426,285.083,108.858,284.118,102.848,281.199z"/>
	<path fill-rule="evenodd" clip-rule="evenodd" fill="#F3DFCC" d="M151.876,258.938c-10.086-0.081-13.59-4.109-12.073-13.882
		c1.298-4.838,5.031-8.227,7.44-12.411c2.853-4.952,5.723-9.947,9.708-14.151c2.104-0.561,3.996-0.062,5.747,1.147
		c-2.278,11.41-4.534,22.825-6.851,34.227C155.381,256.164,154.444,258.224,151.876,258.938z"/>
	<path fill-rule="evenodd" clip-rule="evenodd" fill="#F3DFCC" d="M152.778,177.954c-8.673,1.691-12.891-2.578-12.871-13.029
		c4.9-8.969,10.562-17.456,16.414-25.82c0.478-0.683,1.314-0.979,2.137-1.19c1.64-0.23,3.248-0.331,4.463,1.118
		c-1.326,6.969-2.653,13.938-3.98,20.907c-0.991,4.807-2.067,9.597-2.934,14.425C155.649,176.362,155.093,177.864,152.778,177.954z"
		/>
	<path fill-rule="evenodd" clip-rule="evenodd" fill="#F0CCB1" d="M114.796,215.848c0.659-0.665,1.318-1.329,1.977-1.992
		c8.963,0.521,17.461-2.481,26.227-3.471c3.271-0.369,6.519-0.947,9.776-1.43c1.044,2.002,1.329,4.067,0.521,6.228
		c-7.827,5.69-15.863,11.021-25.062,14.322C123.064,225.637,118.287,221.375,114.796,215.848z"/>
	<path fill-rule="evenodd" clip-rule="evenodd" fill="#077B73" d="M152.913,214.913c-0.032-1.985-1.113-3.949-0.136-5.958
		c2.571-0.425,5.158-0.784,7.715-1.289c3.826-0.756,4.762,0.795,3.799,4.316c-0.687,2.51-1.072,5.103-1.593,7.658
		c-2.008,0.496-3.864-0.387-5.79-0.635C153.986,219.194,153.222,217.276,152.913,214.913z"/>
	<path fill-rule="evenodd" clip-rule="evenodd" fill="#F3DFCC" d="M133.798,91.856c0.108-0.28,0.121-0.565,0.038-0.854
		c-0.587-1.305,0.27-2.194,0.945-3.094c4.549-6.063,8.3-12.644,12.395-19.001c1.327-2.06,2.455-4.354,5.171-4.998
		c1.647-0.304,3.195-0.154,4.524,0.989c-2.328,11.718-4.661,23.436-6.982,35.156c-0.444,2.244-1.098,4.235-4.026,3.893
		c-6.729,0.753-9.162-0.658-12.104-7.02C133.252,95.233,133.174,93.542,133.798,91.856z"/>
	<path fill-rule="evenodd" clip-rule="evenodd" fill="#F0CCB1" d="M108.848,60.915c8.686-2.578,17.754-3.087,26.583-4.908
		c3.86-0.796,7.794-1.236,11.694-1.837c1.38,2.048,1.347,4.326,1.086,6.642c-7.703,4.977-15.804,9.289-23.675,13.99
		c-0.712,0.425-1.533,0.568-2.374,0.479C117.681,70.535,112.287,66.631,108.848,60.915z"/>
	<path fill-rule="evenodd" clip-rule="evenodd" fill="#F0CCB1" d="M115.875,134.891c0.339-0.32,0.679-0.641,1.018-0.96
		c8.708-3.154,17.638-4.867,26.943-4.132c3.388-0.577,6.778-1.155,10.167-1.733c0.414,2.354,0.474,4.711,0.074,7.077
		c-8.636,4.765-16.466,11.011-25.979,14.181c-4.071-3.706-7.745-7.806-11.554-11.771
		C115.875,136.856,115.399,135.953,115.875,134.891z"/>
	<path fill-rule="evenodd" clip-rule="evenodd" fill="#FEFEFD" d="M143.835,129.799c-8.981,1.378-17.962,2.755-26.943,4.132
		c5.567-6.087,11.615-11.672,17.835-17.077c3.443,1.445,3.462,5.31,5.475,7.779C141.53,126.261,142.632,128.071,143.835,129.799z"/>
	<path fill-rule="evenodd" clip-rule="evenodd" fill="#EDCDAE" d="M108.848,60.915c4.716,4.333,10.03,8.111,13.05,14.023
		c0.45,1.151-0.137,1.768-1.123,2.177c-2.125-1.552-4.537-0.828-6.853-0.862c-5.616-2.257-7.416-6.681-7.015-12.355
		C107.525,62.884,107.628,61.537,108.848,60.915z"/>
	<path fill-rule="evenodd" clip-rule="evenodd" fill="#E85452" d="M153.799,134.939c-0.75-2.315-1.782-4.639,0.203-6.873
		c0.164-0.015,0.329-0.025,0.492-0.045c12.333-1.445,12.451-1.291,8.427,11.011c-1.608-0.091-3.219-0.181-4.828-0.271
		C155.854,138.394,153.591,138.054,153.799,134.939z"/>
	<path fill-rule="evenodd" clip-rule="evenodd" fill="#F79C1E" d="M147.698,60.947c-0.877-2.202-1.216-4.449-0.572-6.778
		c2.274-0.379,4.558-0.71,6.82-1.15c3.925-0.764,5.751,0.471,4.675,4.682c-0.611,2.392-1.168,4.797-1.75,7.197
		c-1.59-0.042-3.179-0.083-4.769-0.124C149.816,64.44,147.623,64,147.698,60.947z"/>
	<path fill-rule="evenodd" clip-rule="evenodd" fill="#EDCBAE" d="M115.875,134.891c3.404,5.2,9.423,8.158,12.03,14.04
		c0.792,1.341,1.195,2.557-0.935,2.98c-0.074-1.712-0.661-2.373-2.203-1.072c-9.083-0.619-12.666-5.111-11.025-13.816
		C114.453,136.313,115.164,135.602,115.875,134.891z"/>
	<path fill-rule="evenodd" clip-rule="evenodd" fill="#F9BE39" d="M133.798,91.856c-0.013,1.69-0.026,3.38-0.039,5.071
		c-1.451-1.475-0.68-3.306-0.803-4.994C133.238,91.922,133.519,91.896,133.798,91.856z"/>
	<path fill-rule="evenodd" clip-rule="evenodd" fill="#F1D0B2" d="M147.698,60.947c1.468,1.276,2.936,2.551,4.403,3.827
		c-4.728,4.285-7.04,10.262-10.568,15.381c-2.517,3.652-4.883,7.403-7.697,10.847c-2.721-0.418-5.53,0.294-8.206-1.039
		c-4.797-2.391-6.556-6.8-4.855-12.848c0.374-0.726,0.748-1.451,1.123-2.177c6.8-3.973,13.624-7.906,20.383-11.949
		C143.994,61.965,145.583,60.815,147.698,60.947z"/>
	<path fill-rule="evenodd" clip-rule="evenodd" fill="#F1D0B2" d="M126.97,151.911c1.112-0.742,0.903-1.898,0.935-2.98
		c6.97-3.987,13.919-8.012,20.925-11.935c1.554-0.87,3.308-1.381,4.969-2.057c1.431,1.274,2.862,2.549,4.294,3.823
		c-4.887,5.796-8.297,12.575-12.452,18.86c-1.728,2.613-3.418,5.184-5.734,7.303c-0.346,0.046-0.692,0.092-1.039,0.138
		C128.698,164.571,124.491,159.922,126.97,151.911z"/>
	<path fill-rule="evenodd" clip-rule="evenodd" fill="#ECCDAF" d="M114.796,215.848c4.796,3.928,9.139,8.309,13.101,13.072
		c0.667,1.16,0.677,1.996-0.992,1.996c-2.634-0.171-5.304,0.632-7.91-0.324c-4.581-1.68-6.343-5.376-6.083-12.808
		C113.54,217.139,114.168,216.493,114.796,215.848z"/>
	<path fill-rule="evenodd" clip-rule="evenodd" fill="#F1D0B2" d="M126.905,230.916c0.813-0.426,0.973-1.177,0.992-1.996
		c8.763-3.911,16.541-9.582,25.016-14.007c1.331,1.364,2.663,2.729,3.995,4.092c-5.231,8.993-10.428,18.008-17.105,26.051
		c-2.327,0.048-4.653,0.096-6.979,0.145c-6.332-2.942-7.461-5.153-6.766-13.24C126.34,231.612,126.623,231.264,126.905,230.916z"/>
</g>
</svg>
