<?xml version="1.0" encoding="utf-8"?>
<!-- Generator: Adobe Illustrator 16.0.0, SVG Export Plug-In . SVG Version: 6.00 Build 0)  -->
<!DOCTYPE svg PUBLIC "-//W3C//DTD SVG 1.1//EN" "http://www.w3.org/Graphics/SVG/1.1/DTD/svg11.dtd">
<svg version="1.1" id="Layer_1" xmlns="http://www.w3.org/2000/svg" xmlns:xlink="http://www.w3.org/1999/xlink" x="0px" y="0px"
	 width="295.932px" height="295.847px" viewBox="0 0 295.932 295.847" enable-background="new 0 0 295.932 295.847"
	 xml:space="preserve">
<g>
	<path fill-rule="evenodd" clip-rule="evenodd" fill="#F7F7F7" d="M275.956,220.971c-12.271,22.808-30.141,40.096-52.062,53.612
		c-15.025,9.266-31.22,15.297-48.416,18.583c-13.177,2.518-26.425,3.358-39.984,2.11c-17.749-1.633-34.521-6.255-50.543-13.57
		c-12.688-5.792-24.309-13.484-34.69-22.938c-13.754-12.527-25.62-26.635-33.849-43.331c-6.957-14.116-12.637-28.831-14.436-44.704
		c-0.651-5.744-1.75-11.474-1.913-17.23C-0.59,130.458,3.7,108.395,13.248,87.296c11.236-24.831,28.379-44.622,50.239-60.567
		c1.057-0.77,2.008-1.805,3.493-1.737c0.351,0.419,0.508,0.899,0.474,1.444c-0.645,2.304-2.675,3.335-4.378,4.603
		C30.164,55.544,10.49,88.148,4.834,128.686c-5.004,35.865,2.851,69.252,23,99.391c22.394,33.495,53.704,54.282,93.211,61.695
		c43.714,8.203,83.244-2.272,118.136-29.746c12.511-9.85,22.89-21.763,31.194-35.416c1.027-1.688,1.979-3.524,4.134-4.117
		C275.056,220.458,275.538,220.618,275.956,220.971z"/>
	<path fill-rule="evenodd" clip-rule="evenodd" fill="#F7F7F7" d="M66.982,25.999c0-0.336-0.001-0.671-0.002-1.007
		c6.336-5.106,13.507-8.715,20.911-11.995c20.439-9.054,41.811-13.611,64.138-12.931c19.868,0.604,38.948,5.033,57.028,13.455
		c28.799,13.413,51.513,33.454,66.899,61.467c-0.425,0.352-0.912,0.507-1.462,0.469c-2.497-0.762-3.405-3.033-4.661-4.957
		c-23.903-36.624-57.48-58.428-100.635-65.264c-34.434-5.454-66.414,1.925-96.374,19.232C71.09,25.47,69.436,27.459,66.982,25.999z"
		/>
	<path fill-rule="evenodd" clip-rule="evenodd" fill="#F6F6F6" d="M274.95,74.989c0.335,0,0.671-0.001,1.006-0.001
		c6.935,10.298,10.718,21.845,14.256,33.652c4.338,14.474,6.2,29.168,5.614,44.099c-0.545,13.866-2.56,27.567-7.483,40.751
		c-3.531,9.456-6.311,19.194-12.387,27.481c-0.335-0.001-0.671-0.002-1.006-0.002c-1.568-2.736,0.425-4.804,1.492-6.898
		c6.855-13.462,11.469-27.656,13.981-42.521c5.189-30.699,0.215-59.9-13.089-87.875C276.056,80.983,273.37,78.524,274.95,74.989z"/>
	<path fill-rule="evenodd" clip-rule="evenodd" fill="#FEFEFE" d="M274.95,74.989c3.337,8.647,8.078,16.686,10.859,25.588
		c3.504,11.217,6.025,22.542,7.307,34.299c2.141,19.634-0.739,38.523-6.18,57.231c-1.808,6.219-4.437,12.12-7.048,18.027
		c-1.605,3.631-4.026,6.889-4.938,10.835c-4.177,5.733-8.196,11.59-12.558,17.179c-16.528,21.18-37.42,36.455-62.549,45.994
		c-16.927,6.426-34.455,10.012-52.498,9.706c-32.442-0.548-62.016-10.2-87.945-30.027c-23.179-17.724-39.555-40.562-49.188-68.006
		c-4.049-11.535-6.283-23.544-7.422-35.894c-2.698-29.252,3.695-56.415,17.33-81.963C30.901,57.757,46.088,41.204,64.884,28.03
		c0.788-0.552,1.402-1.349,2.098-2.031c8.664-4.14,16.662-9.575,25.741-12.925c14.042-5.182,28.293-8.881,43.343-10.254
		c27.969-2.55,54.096,3.224,78.829,15.739c23.583,11.932,42.474,29.226,56.361,51.854C272.26,72.05,272.964,74.082,274.95,74.989z"
		/>
	<path fill-rule="evenodd" clip-rule="evenodd" fill="#F6F6F6" d="M117.965,110.787c4.568-1.938,9.489,0.041,14.854-1.325
		c-4.43-8.037-8.337-16.053-13.089-23.534c-7.63-12.013-14.182-24.637-21.547-36.795c-4.357-7.193-8.23-14.685-12.705-21.8
		c-2.048-3.256-1.739-4.871,1.727-6.49c14.539-6.795,29.661-11.179,45.685-12.97c16.034-1.792,31.697-0.578,47.344,2.964
		c19.109,4.328,36.407,12.597,52.062,24.14c27.589,20.342,44.776,47.826,52.94,80.828c4.321,17.468,4.716,35.226,2.053,53.245
		c-4.065,27.508-15.913,51.188-33.386,72.236c-7.641,9.204-16.839,16.953-27.025,23.431c-2.456,1.562-3.757,1.323-5.134-1.171
		c-6.239-11.287-12.099-22.823-18.985-33.707c-9.474-14.97-17.077-31.004-26.794-45.811c3.758-2.454,4.616-6.018,4.507-10.309
		c-0.218-8.479-0.04-16.967-0.072-25.451c-0.027-7.252-0.432-7.694-7.561-7.715c-16.137-0.047-32.273,0.025-48.409-0.052
		c-2.573-0.013-5.402,0.615-7.467-1.753c6.86-1.84,13.848-0.379,20.766-0.786c2.82-0.166,5.667-0.159,8.486,0.01
		c2.674,0.16,1.937-1.456,1.751-2.875c1.812-1.984,4.256-1.609,6.532-1.646c6.646-0.108,13.299,0.11,19.943-0.102
		c4.875-0.156,5.871-1.083,5.897-5.997c0.089-16.505,1.604-14.706-14.003-14.793c-13.795-0.076-27.591,0.023-41.386-0.05
		C122.527,112.497,119.887,112.99,117.965,110.787z"/>
	<path fill-rule="evenodd" clip-rule="evenodd" fill="#404041" d="M116.961,138.75c19.762-0.046,39.524-0.021,59.285-0.192
		c4.596-0.039,6.089,1.879,6.007,6.304c-0.2,10.791-0.269,21.595,0.027,32.381c0.131,4.804-1.854,6.716-6.316,6.787
		c-1.646-0.013-3.294-0.025-4.941-0.038c-3.036,2.013-6.072,2.013-9.108,0c-7.646-0.06-15.31,0.188-22.93-0.286
		c-5.06-0.315-7.438,1.031-6.439,6.352c-0.508,0.05-0.891-0.155-1.167-0.574c-0.392-0.747-0.539-1.566-0.64-2.392
		c-0.21-1.72-1.024-2.772-2.895-2.726c-1.945,0.048-2.486,1.34-2.673,2.969c-0.096,0.829-0.269,1.641-0.718,2.368
		c-0.335,0.381-0.746,0.493-1.229,0.339c-0.028-3.335,1.048-7.179-4.883-6.473c-2.662,0.317-3.85-2.215-3.853-4.847
		c-0.013-11.793-0.013-23.585,0.008-35.377C114.498,141.406,115.223,139.789,116.961,138.75z"/>
	<path fill-rule="evenodd" clip-rule="evenodd" fill="#404041" d="M117.965,110.787c19.153,0.042,38.306,0.077,57.458,0.128
		c6.283,0.017,6.737,0.494,6.763,6.937c0.014,3.665-0.162,7.339,0.043,10.992c0.261,4.625-1.907,6.17-6.295,6.12
		c-9.321-0.106-18.646,0.072-27.969,0.134c-8.634-0.062-17.268-0.134-25.901-0.182c-6.847-0.038-7.59-0.778-7.616-7.813
		c-0.014-3.655,0-7.309,0.014-10.963C114.471,113.604,115.257,111.562,117.965,110.787z"/>
	<path fill-rule="evenodd" clip-rule="evenodd" fill="#8F0B18" d="M171.093,191.708c6.483,0.264,6.489,0.264,6.497,6.812
		c0.009,6.282,0.009,12.563,0.001,18.845c-0.009,6.569-0.015,6.569-6.499,6.813c-3.082,1.769-6.165,1.77-9.247,0
		c-6.568-0.245-6.575-0.245-6.585-6.793c-0.01-6.295-0.01-12.591,0-18.888c0.01-6.526,0.018-6.526,6.583-6.788
		C164.927,190.003,168.01,190.003,171.093,191.708z"/>
	<path fill-rule="evenodd" clip-rule="evenodd" fill="#8E0A17" d="M131.912,189.932c0.197,0.114,0.409,0.155,0.634,0.124
		c4.923-0.161,7.002,1.804,6.581,7.1c-0.51,6.397-0.414,12.885-0.026,19.3c0.299,4.965-1.361,7.173-6.379,6.535
		c-3.199,2.084-6.403,1.976-9.611,0.021c-4.995,0.597-6.63-1.583-6.309-6.546c0.415-6.4,0.471-12.876-0.016-19.266
		c-0.392-5.146,1.436-7.335,6.437-7.16c0.27,0.047,0.534,0.024,0.792-0.066C126.637,188.094,129.27,188.069,131.912,189.932z"/>
	<path fill-rule="evenodd" clip-rule="evenodd" fill="#8E0A17" d="M83.129,160.928c3.734-0.149,5.219,1.432,4.932,5.338
		c-0.349,4.74-0.325,9.542-0.007,14.288c0.257,3.835-1.391,5.043-4.843,4.764c-2.403,1.229-4.798,1.452-7.179-0.061
		c-3.469,0.393-4.669-1.144-4.5-4.596c0.244-4.977,0.233-9.982,0.004-14.96c-0.161-3.502,1.253-4.925,4.616-4.709
		C78.46,159.083,80.789,159.365,83.129,160.928z"/>
	<path fill-rule="evenodd" clip-rule="evenodd" fill="#A11220" d="M132.689,226.807c5.201,2.872,6.913,7.355,6.022,13.04
		c-7.189,2.656-14.376,2.677-21.562-0.013c-0.891-5.678,0.797-10.167,6.003-13.038C126.826,223.833,129.118,223.834,132.689,226.807
		z"/>
	<path fill-rule="evenodd" clip-rule="evenodd" fill="#A1121F" d="M155.874,240.895c-1.304-5.904,1.03-10.108,6.096-13.034
		c2.999-3.331,5.997-2.58,8.994,0.003c5.062,2.931,7.312,7.17,6.065,13.035C169.978,243.526,162.926,243.531,155.874,240.895z"/>
	<path fill-rule="evenodd" clip-rule="evenodd" fill="#900D1A" d="M82.993,187.069c9.135,5.292,11.349,14.13,4.961,20.191
		c-0.971,0.921-2.146,3.2-3.846,1.36c-1.247-1.35-1.068-2.915,0.633-4.629c3.285-3.31,3.01-7.767-0.042-10.558
		c-2.742-2.509-7.259-2.458-9.961,0.11c-3.056,2.905-3.237,6.942,0.063,10.562c1.561,1.712,1.992,3.452,0.54,4.664
		c-1.647,1.374-2.966-0.673-4.045-1.771c-6.128-6.235-3.842-15.338,4.796-19.323C78.205,185.34,80.534,185.467,82.993,187.069z"/>
	<path fill-rule="evenodd" clip-rule="evenodd" fill="#404041" d="M155.874,240.895c7.052,0.002,14.104,0.003,21.156,0.004
		c1.919,1.514,3.5,3.217,2.515,5.915c-1.048,2.867-3.423,3.23-6.103,3.179c-4.661-0.091-9.326-0.072-13.989-0.007
		c-2.446,0.035-4.718-0.158-5.902-2.718C152.223,244.4,153.771,242.536,155.874,240.895z"/>
	<path fill-rule="evenodd" clip-rule="evenodd" fill="#424243" d="M117.15,239.834c7.188,0.005,14.375,0.011,21.562,0.015
		c2.26,1.447,3.022,3.537,2.123,5.994c-0.855,2.34-2.957,2.947-5.241,2.955c-5.129,0.019-10.258,0.03-15.387-0.004
		c-2.268-0.016-4.366-0.589-5.206-2.985C114.132,243.327,114.872,241.265,117.15,239.834z"/>
	<path fill-rule="evenodd" clip-rule="evenodd" fill="#A21220" d="M76.28,156.97c-3.614-2.438-5.489-5.717-4.248-10.086
		c1.357-4.776,5.26-5.86,9.627-6.022c2.628,0.162,4.688,1.064,5.197,3.986c2.223,5.145,0.838,9.162-3.795,12.167
		C80.791,158.536,78.528,158.88,76.28,156.97z"/>
	<path fill-rule="evenodd" clip-rule="evenodd" fill="#910F1C" d="M88.332,129.045c-3.54-9.507,0.639-17.607,9.35-18.123
		c7.208-0.427,12.757,4.985,12.531,12.219c-0.216,6.9-6.005,11.94-12.958,11.24c-1.15-0.116-2.282-0.405-3.423-0.614
		C90.854,133.526,89.181,131.766,88.332,129.045z"/>
	<path fill-rule="evenodd" clip-rule="evenodd" fill="#444243" d="M88.332,129.045c1.834,1.574,3.668,3.148,5.501,4.722
		c-2.326,3.694-4.651,7.389-6.977,11.082c-1.731-1.331-3.463-2.661-5.196-3.988C83.883,136.922,86.107,132.985,88.332,129.045z"/>
	<path fill-rule="evenodd" clip-rule="evenodd" fill="#332E30" d="M171.093,191.708c-3.084,0.002-6.168,0.003-9.251,0.002
		c0.025-2.573,0.049-5.146,0.072-7.719c3.036,0,6.072,0,9.108,0C171.046,186.563,171.069,189.136,171.093,191.708z"/>
	<path fill-rule="evenodd" clip-rule="evenodd" fill="#453E40" d="M132.689,226.807c-3.179-1.313-6.358-1.245-9.537-0.009
		c-0.014-1.264-0.029-2.525-0.044-3.786c3.205-0.007,6.41-0.015,9.613-0.021C132.71,224.263,132.7,225.536,132.689,226.807z"/>
	<path fill-rule="evenodd" clip-rule="evenodd" fill="#382D2F" d="M170.964,227.864c-2.998-0.756-5.996-1.447-8.995-0.002
		c-0.041-1.229-0.083-2.458-0.125-3.686c3.084,0,6.167-0.001,9.249,0C171.049,225.406,171.007,226.635,170.964,227.864z"/>
	<path fill-rule="evenodd" clip-rule="evenodd" fill="#4C4547" d="M76.28,156.97c2.26,0.015,4.521,0.029,6.781,0.045
		c0.022,1.305,0.045,2.608,0.068,3.913c-2.326,0.021-4.652,0.044-6.977,0.065C76.195,159.652,76.237,158.312,76.28,156.97z"/>
	<path fill-rule="evenodd" clip-rule="evenodd" fill="#404041" d="M82.993,187.069c-2.327-0.081-4.668-0.311-6.903,0.61
		c-0.02-0.811-0.041-1.617-0.06-2.424c2.396,0.021,4.791,0.04,7.183,0.062C83.139,185.902,83.066,186.485,82.993,187.069z"/>
	<path fill-rule="evenodd" clip-rule="evenodd" fill="#8F0B18" d="M147.979,90.15c-4.649,0-9.303-0.109-13.948,0.041
		c-2.852,0.093-3.813-1.133-3.793-3.835c0.067-9.465,0.083-18.932-0.01-28.396c-0.03-2.996,1.123-4.067,4.138-4.021
		c9.297,0.142,18.599,0.139,27.897,0c2.899-0.043,4.293,0.748,4.262,3.867c-0.1,9.63-0.065,19.263-0.025,28.895
		c0.01,2.502-0.986,3.559-3.575,3.49C157.945,90.055,152.961,90.15,147.979,90.15z"/>
	<path fill-rule="evenodd" clip-rule="evenodd" fill="#8E0A17" d="M212.729,185.323c-3.442,0.266-5.101-0.935-4.843-4.771
		c0.318-4.745,0.342-9.546-0.007-14.285c-0.287-3.909,1.204-5.484,4.935-5.338c2.339-1.563,4.666-1.844,6.973,0.065
		c3.362-0.218,4.771,1.211,4.611,4.708c-0.228,4.975-0.236,9.976,0.004,14.95c0.166,3.436-1.009,4.998-4.488,4.604
		C217.533,186.769,215.136,186.547,212.729,185.323z"/>
	<path fill-rule="evenodd" clip-rule="evenodd" fill="#404041" d="M148.181,107.279c-1.325,0-2.649,0.002-3.974,0
		c-6.604-0.007-6.604-0.008-6.608-6.413c-0.004-6.766-0.004-6.766,6.812-6.77c2.152-0.001,4.304,0,6.458,0
		c7.939,0,10.487,3.527,8.238,11.204c-0.492,1.683-1.607,1.935-2.979,1.954c-2.648,0.036-5.298,0.011-7.946,0.011
		C148.181,107.269,148.181,107.274,148.181,107.279z"/>
	<path fill-rule="evenodd" clip-rule="evenodd" fill="#900D1A" d="M219.854,187.677c9.131,4.243,11.034,14.976,3.623,20.419
		c-0.915,0.672-1.953,1.816-2.977,0.61c-0.807-0.951-1.348-2.369-0.268-3.643c0.641-0.756,1.487-1.36,2.025-2.176
		c2.162-3.277,1.513-7.535-1.62-9.79c-3.26-2.347-6.698-2.217-9.542,0.576c-2.839,2.79-3.292,6.4-0.667,9.448
		c1.842,2.138,3.165,3.735,0.871,6.301c-4.713-1.902-6.745-5.758-6.85-10.555c-0.129-5.905,3.555-9.384,8.5-11.801
		C215.41,185.466,217.74,185.343,219.854,187.677z"/>
	<path fill-rule="evenodd" clip-rule="evenodd" fill="#A21220" d="M212.882,157.015c-4.637-3.006-6.017-7.026-3.798-12.171
		c0.513-2.917,2.57-3.818,5.193-3.982c4.365,0.164,8.271,1.243,9.628,6.02c1.239,4.365-0.621,7.65-4.243,10.085
		C217.415,158.88,215.152,158.536,212.882,157.015z"/>
	<path fill-rule="evenodd" clip-rule="evenodd" fill="#910F1C" d="M202.104,133.768c-8.817,1.602-14.982-1.659-16.172-8.655
		c-0.849-4.991,0.525-9.264,4.831-12.165c4.243-2.86,8.739-2.915,13.059-0.154c4.375,2.795,5.87,7.011,5.128,12.023
		c-0.214,1.445-0.883,2.824-1.343,4.233C206.757,131.77,205.083,133.529,202.104,133.768z"/>
	<path fill-rule="evenodd" clip-rule="evenodd" fill="#444243" d="M202.104,133.768c1.834-1.573,3.669-3.145,5.503-4.717
		c2.223,3.937,4.444,7.872,6.669,11.81c-1.729,1.33-3.461,2.659-5.192,3.985C206.758,141.153,204.432,137.459,202.104,133.768z"/>
	<path fill-rule="evenodd" clip-rule="evenodd" fill="#4C4546" d="M212.882,157.015c2.26-0.017,4.521-0.032,6.78-0.049
		c0.042,1.343,0.084,2.686,0.125,4.027c-2.324-0.021-4.648-0.044-6.973-0.065C212.837,159.624,212.859,158.32,212.882,157.015z"/>
	<path fill-rule="evenodd" clip-rule="evenodd" fill="#404041" d="M219.854,187.677c-2.238-0.916-4.577-0.689-6.903-0.609
		c-0.074-0.582-0.149-1.165-0.222-1.747c2.397-0.021,4.794-0.045,7.188-0.067C219.894,186.063,219.873,186.87,219.854,187.677z"/>
	<path fill-rule="evenodd" clip-rule="evenodd" fill="#3C393B" d="M131.912,189.932c-2.632,0.014-5.266,0.028-7.898,0.042
		c0.88-2.417-2.325-6.488,3.197-7.052C133.568,182.275,131.692,186.707,131.912,189.932z"/>
	<path fill-rule="evenodd" clip-rule="evenodd" fill="#F6E9EA" d="M107.076,125.259c-4.251,7.857-12.261,9.112-16.302,2.553
		c-2.995-4.861-1.735-10.296,3.064-13.221c4.498-2.742,10.397-0.38,13.18,5.277C107.744,121.658,107.625,123.456,107.076,125.259z"
		/>
	<path fill-rule="evenodd" clip-rule="evenodd" fill="#F3E4E6" d="M107.076,125.259c-0.02-1.797-0.039-3.595-0.058-5.391
		C108.133,121.653,108.214,123.45,107.076,125.259z"/>
	<path fill-rule="evenodd" clip-rule="evenodd" fill="#FDFDFD" d="M138.771,72.096c-0.002-5.517,4.369-9.913,9.768-9.824
		c5.189,0.086,9.411,4.345,9.515,9.598c0.108,5.534-4.107,9.973-9.535,10.042C143.092,81.979,138.773,77.631,138.771,72.096z"/>
	<path fill-rule="evenodd" clip-rule="evenodd" fill="#F6E9EA" d="M188.923,119.868c2.105-5.288,5.394-7.335,10.653-5.963
		c4.092,1.067,6.735,3.662,6.509,8.416c-0.254,5.324-3.098,8.932-7.881,9.617c-4.416,0.633-7.598-1.641-9.34-6.671
		C188.319,123.46,188.196,121.66,188.923,119.868z"/>
	<path fill-rule="evenodd" clip-rule="evenodd" fill="#F3E5E6" d="M188.923,119.868c-0.02,1.799-0.039,3.598-0.059,5.398
		C187.727,123.455,187.808,121.656,188.923,119.868z"/>
	<path fill-rule="evenodd" clip-rule="evenodd" fill="#A21220" d="M91.9,119.99c3.416-4.237,7.3-5.308,10.536-2.906
		c3.262,2.421,3.832,6.672,1.34,10c-3.273,4.371-8.917,3.371-11.974-2.121C91.374,123.296,91.23,121.635,91.9,119.99z"/>
	<path fill-rule="evenodd" clip-rule="evenodd" fill="#EEDADC" d="M91.9,119.99c-0.033,1.657-0.066,3.315-0.099,4.973
		C90.513,123.28,90.492,121.621,91.9,119.99z"/>
	<path fill-rule="evenodd" clip-rule="evenodd" fill="#A21220" d="M204.137,124.964c-2.017,3.333-4.774,5.641-8.844,4.715
		c-2.177-0.496-3.752-2.322-4.497-4.619c-1.057-3.266-0.783-6.643,2.218-8.26c2.812-1.515,6.368-1.787,9.173,0.873
		c0.711,0.674,1.24,1.539,1.853,2.316C204.713,121.635,204.568,123.296,204.137,124.964z"/>
	<path fill-rule="evenodd" clip-rule="evenodd" fill="#EEDADC" d="M204.137,124.964c-0.032-1.658-0.065-3.316-0.098-4.975
		C205.448,121.621,205.43,123.28,204.137,124.964z"/>
</g>
</svg>
