<?xml version="1.0" encoding="utf-8"?>
<!-- Generator: Adobe Illustrator 16.0.0, SVG Export Plug-In . SVG Version: 6.00 Build 0)  -->
<!DOCTYPE svg PUBLIC "-//W3C//DTD SVG 1.1//EN" "http://www.w3.org/Graphics/SVG/1.1/DTD/svg11.dtd">
<svg version="1.1" id="Layer_1" xmlns="http://www.w3.org/2000/svg" xmlns:xlink="http://www.w3.org/1999/xlink" x="0px" y="0px"
	 width="295.83px" height="295.704px" viewBox="0 0 295.83 295.704" enable-background="new 0 0 295.83 295.704"
	 xml:space="preserve">
<g>
	<path fill-rule="evenodd" clip-rule="evenodd" fill="#F7F7F7" d="M295.83,148.091c-0.512,80.75-66.06,148.949-150.802,147.593
		C66.668,294.43-1.903,230.229,0.041,143.623C1.76,66.986,64.927-2.148,152.491,0.051C229.48,1.986,295.325,65.218,295.83,148.091z"
		/>
	<path fill-rule="evenodd" clip-rule="evenodd" fill="#FEFEFE" d="M147.865,293.816C66.072,292.643,1.054,228.898,2.142,145.617
		C3.169,66.918,65.348,1.054,150.346,2.15c78.95,1.018,144.482,64.024,143.212,148.423
		C292.373,229.438,229.839,292.473,147.865,293.816z"/>
	<path fill-rule="evenodd" clip-rule="evenodd" fill="#F6F6F6" d="M139.842,93.674c-5.828-10.002-11.688-19.987-17.477-30.011
		c-7.103-12.297-14.149-24.628-21.211-36.948c-0.49-0.853-1.057-1.701-1.339-2.627c-0.765-2.505-4.452-4.332-3.253-6.779
		c1.306-2.667,5.176-2.481,7.939-3.458c16.975-6,34.618-8.159,52.412-6.843c30.416,2.25,57.647,13.087,81.274,32.646
		c26.006,21.529,42.029,49.251,48.215,82.036c7.678,40.689-1.672,78.004-26.305,111.39c-6.236,8.451-13.371,16.005-21.496,22.716
		c-2.988,2.468-4.012,1.481-5.541-1.145c-6.982-11.995-14.1-23.91-21.084-35.902c-2.826-4.852-5.435-9.828-8.143-14.748
		c0.86-1.405,2.647-1.302,3.732-2.331c1.479-1.742,0.886-3.83,0.893-5.761c0.052-14.436,0.139-28.875-0.039-43.311
		c-0.055-4.324,1.251-7.501,4.47-10.464c7.749-7.136,7.622-7.274,1.514-15.807c-1.622-1.933-2.496-4.302-3.747-6.452
		c-0.568-1.332-1.702-1.627-3.008-1.626c-9.086-0.379-18.194,0.719-27.25-0.61c-1.631-0.933-2.448-2.524-3.313-4.08
		c-0.918-3.642-0.872-7.301-0.116-10.959c0.984-2.319,5.568-4.456,0.34-7.084c-10.168-0.262-20.315,0.025-30.46-0.129
		C144.418,95.349,141.784,95.839,139.842,93.674z"/>
	<path fill-rule="evenodd" clip-rule="evenodd" fill="#983B2D" d="M85.906,161.865c-3.789-2.433-4.253-5.993-4.137-10.205
		c0.311-11.259,0.196-22.53,0.251-33.797c4.917-1.104,9.901-0.268,14.849-0.5c20.55-0.964,41.115-0.961,61.683-0.974
		c16.594-0.011,33.148,1.503,49.741,1.088c1.979,1.581,0.75,3.063-0.134,4.555c-10.231,9.721-18.794,20.957-28.213,31.423
		c-5.202,5.779-10.508,11.491-15.203,17.725c-2.629,1.354-5.269,1.391-7.919,0.085c-3.691-5.431-13.998-5.888-19.173-0.831
		c-2.191,1.088-4.552,0.876-6.868,0.884c-9.154,0.029-18.319-0.271-27.457,0.098C95.389,171.737,90.164,167.867,85.906,161.865z"/>
	<path fill-rule="evenodd" clip-rule="evenodd" fill="#C34B37" d="M85.944,194.974c-0.004-10.405-0.008-20.812-0.012-31.216
		c2.653,0.18,3.945,2.263,5.319,4.04c2.648,3.425,5.941,4.735,10.296,4.631c9.742-0.23,19.492-0.09,29.239-0.059
		c2.297,0.007,4.643-0.228,6.812,0.841c4.632,4.541,14.647,4.683,19.104,0.252c4.332-1.783,8.867-1.506,13.152-0.412
		c11.849,3.026,23.547,6.618,35.259,10.142c1.758,0.529,3.509,1.102,4.17,3.12c-0.338,3.012,0.936,6.159-0.778,9.055
		c-2.119,1.287-4.488,1.075-6.796,1.076c-36.206,0.024-72.413,0.029-108.619-0.006C90.634,196.435,88.059,196.762,85.944,194.974z"
		/>
	<path fill-rule="evenodd" clip-rule="evenodd" fill="#692F27" d="M85.944,194.974c39.581-0.013,79.162-0.028,118.743-0.025
		c1.321,0,2.643,0.193,3.964,0.296c1.188,2.785,0.925,5.594,0.131,8.41c-1.65,0.115-3.3,0.23-4.949,0.346
		c-36.647-0.058-73.294-0.116-109.941-0.169C85.222,203.818,85.222,203.829,85.944,194.974z"/>
	<path fill-rule="evenodd" clip-rule="evenodd" fill="#311715" d="M139.842,93.674c13.424,0.14,26.847,0.279,40.271,0.418
		c0.542,7.826,0.298,8.131-7.612,8.148c-16.433,0.037-32.866,0.023-49.298,0.006c-7.875-0.008-8.167-0.342-7.615-8.146
		C123.672,93.958,131.757,93.817,139.842,93.674z"/>
	<path fill-rule="evenodd" clip-rule="evenodd" fill="#6E3128" d="M137.675,173.772c-12.293,0.009-24.594-0.221-36.877,0.147
		c-4.636,0.138-7.851-1.027-10.389-4.917c-1.231-1.887-2.275-4.111-4.477-5.244c-0.009-0.632-0.018-1.262-0.026-1.893
		c7.232,7.749,16.366,8.769,26.335,8.106c8.442-0.562,16.952-0.104,25.432-0.098C139.001,171.172,139,172.472,137.675,173.772z"/>
	<path fill-rule="evenodd" clip-rule="evenodd" fill="#73C6BF" d="M115.588,94.101c0.216,7.223,0.214,7.021,7.323,6.969
		c16.462-0.119,32.928-0.116,49.391,0.027c7.646,0.066,7.644,0.269,7.806-7.008c0.634,3.032,2.978,6.551-2.256,7.902
		c-1.332,3.906,0.143,8.007-0.829,11.94c-1.026,0.797-2.108,0.812-3.23,0.234c-1.646-1.774-1.203-4.006-1.307-6.11
		c-0.081-1.629,0.221-3.383-1.712-4.251c-8.251-1.007-16.522-0.09-24.764-0.491c-5.777,0.133-11.558,0.107-17.333,0.009
		c-3.726-0.063-5.532,1.315-5.355,5.186c0.089,1.952,0.062,3.996-1.372,5.641c-1.553,0.831-3.028,0.924-4.353-0.442
		c-0.612-4.388,2.219-9.23-2.369-13.213C114.089,99.504,114.077,96.187,115.588,94.101z"/>
	<path fill-rule="evenodd" clip-rule="evenodd" fill="#A8A2A1" d="M117.597,113.706c1.461,0.011,2.921,0.021,4.383,0.031
		c0.426-0.236,0.877-0.669,1.347-0.482c9.986,3.983,20.423,1.258,30.621,2.069c5.319-0.047,10.637-0.128,15.955,0.059
		c3.477,0.195,7.101-0.785,10.338,1.298c9.823,0.072,19.646,0.146,29.47,0.219c1.004,1.039,0.763,1.65-0.639,1.864
		c-1.145-1.409-2.752-0.942-4.187-0.942c-40.956-0.003-81.911,0.022-122.866,0.043c1.175-1.816,3.002-0.924,4.511-0.956
		c5.446-0.118,10.897-0.117,16.345-0.026C108.049,116.969,113.27,117.463,117.597,113.706z"/>
	<path fill-rule="evenodd" clip-rule="evenodd" fill="#8B8A8C" d="M208.783,203.654c-0.043-2.806-0.086-5.611-0.131-8.413
		c0.008-3.248,0.016-6.499,0.023-9.748c-1.836-2.822-1.336-6.009-1.357-9.09c-0.036-5.409-0.089-10.817,0.037-16.214
		c0.357-3.219-0.115-6.501,0.518-9.741c-3.043,1.627-4.312,5.906-8.532,5.838c-1.824-1.945,0.114-3.287,0.913-4.633
		c2.18-3.673,4.978-6.928,7.481-10.382c1.706-2.812,4.138-5.156,5.343-8.293c1.072-2.517-0.434-5.597,1.717-7.871
		c0.15,0.07,0.352,0.1,0.444,0.216c7.586,9.532,7.729,9.697-1.423,17.703c-3.201,2.802-4.33,5.643-4.256,9.801
		c0.27,15.266,0.211,30.538,0.157,45.808C209.711,200.291,210.707,202.296,208.783,203.654z"/>
	<path fill-rule="evenodd" clip-rule="evenodd" fill="#EAEBEC" d="M213.966,133.773c-0.965,3.162-3.689,5.208-5.122,8.072
		c-2.307,1.331-3.34-0.456-4.213-1.943c-1.314-2.235-2.871-4.369-3.57-6.929c0.462-4.553,3.451-7.736,6.053-11.13
		c0.651-1.024,1.304-2.05,1.957-3.077c0.91-0.385,0.733-1.14,0.64-1.866c1.143,0.333,1.857,1.041,1.988,2.263
		C212.275,124.06,214.429,128.714,213.966,133.773z"/>
	<path fill-rule="evenodd" clip-rule="evenodd" fill="#7A7B7C" d="M213.966,133.773c-1.521-4.751-3.303-9.463-2.268-14.61
		c1.032,1.981,2.063,3.962,3.096,5.944C214.452,127.989,215.754,131.029,213.966,133.773z"/>
	<path fill-rule="evenodd" clip-rule="evenodd" fill="#ABA5A4" d="M180.241,116.681c-3.481,0.042-6.963,0.084-10.445,0.126
		c-1.369-2.743-0.121-3.735,2.533-3.789c0.562,0.149,1.074,0.403,1.536,0.759c0.981-0.01,1.962-0.02,2.943-0.029
		c0.353-0.423,0.708-0.424,1.065-0.006C180.002,113.642,179.982,115.273,180.241,116.681z"/>
	<path fill-rule="evenodd" clip-rule="evenodd" fill="#81CBC5" d="M177.873,113.742c-0.354,0.003-0.709,0.005-1.064,0.007
		c0.568-3.902-1.14-8.005,1.046-11.759C177.859,105.908,177.866,109.826,177.873,113.742z"/>
	<path fill-rule="evenodd" clip-rule="evenodd" fill="#682F27" d="M208.728,159.062c-0.018,8.812-0.035,17.623-0.053,26.434
		c-11.917-3.391-23.908-6.542-35.714-10.276c-5.254-1.661-10.462-1.236-15.72-1.457c-1.309-0.983-1.294-1.972-0.01-2.963
		c2.528-0.471,5.343,1.085,7.632-1.08c1.299-1.1,2.826-1.751,4.439-2.211c7.009-1.998,14.179-3.667,19.224-9.612
		c2.856-0.729,5.761-0.521,8.66-0.512C201.05,157.841,205.247,156.003,208.728,159.062z"/>
	<path fill-rule="evenodd" clip-rule="evenodd" fill="#E25B48" d="M187.778,158.97c-2.279,5.159-6.845,6.866-11.879,7.84
		c-3.745,0.725-7.139,2.774-11.037,2.911c1.038-3.972,4.639-5.963,7.06-8.812c10.632-12.504,21.564-24.754,32.432-37.057
		c0.735-0.832,1.83-1.345,2.758-2.008c-1.772,3.663-3.547,7.325-5.322,10.989c-1.154,6.209-5.328,10.975-8.012,16.447
		C192.125,152.65,190.592,156.25,187.778,158.97z"/>
	<path fill-rule="evenodd" clip-rule="evenodd" fill="#76C8C1" d="M157.231,170.799c0.003,0.988,0.006,1.977,0.009,2.964
		c-0.126,2.335-0.644,4.007-3.694,3.813c-4.083-0.26-8.209-0.26-12.292,0.001c-3.06,0.194-3.591-1.407-3.579-3.804
		c0-1.301-0.001-2.601-0.002-3.9c-0.136-2.771,0.69-4.285,3.959-3.983c3.458,0.319,6.998,0.354,10.449-0.003
		C156.033,165.477,157.529,167.047,157.231,170.799z"/>
	<path fill-rule="evenodd" clip-rule="evenodd" fill="#FCFCFC" d="M153.796,116.696c-8.539,0.058-17.103-0.241-25.605,0.351
		c-3.334,0.231-3.183-4.17-6.212-3.308c-0.552-11.883-0.552-11.899,11.035-11.875c4.286,0.009,8.572,0.114,12.857,0.176
		C149.537,106.371,152.571,111.044,153.796,116.696z"/>
	<path fill-rule="evenodd" clip-rule="evenodd" fill="#F4F4F4" d="M153.796,116.696c-2.969-4.709-5.882-9.448-7.924-14.656
		c8.957-0.017,17.913-0.032,26.87-0.049c0.968,3.915,0.968,7.83,0,11.745c-2.332-0.27-2.917,1.134-2.946,3.072
		C164.462,116.77,159.129,116.733,153.796,116.696z"/>
	<path fill-rule="evenodd" clip-rule="evenodd" fill="#81CBC5" d="M172.742,113.735c-0.001-3.916-0.001-7.831-0.001-11.746
		c2.357,3.742,0.519,7.882,1.125,11.789C173.491,113.764,173.116,113.749,172.742,113.735z"/>
	<path fill-rule="evenodd" clip-rule="evenodd" fill="#A8A7A7" d="M187.778,158.97c3.752-9.205,8.977-17.621,14.012-26.137
		c2.96,2.528,2.417,7.797,7.054,9.013c-3.401,4.663-7.17,9.067-9.938,14.174c0.254,1.612-0.996,2.077-2.052,2.69
		C193.828,158.796,190.803,158.883,187.778,158.97z"/>
	<path fill-rule="evenodd" clip-rule="evenodd" fill="#C45340" d="M196.854,158.709c0.683-0.897,1.367-1.795,2.051-2.691
		c3.87-1.471,5.702-5.457,9.824-7.844c0,3.882,0,7.384,0,10.886C204.771,158.944,200.812,158.826,196.854,158.709z"/>
</g>
</svg>
