<?xml version="1.0" encoding="utf-8"?>
<!-- Generator: Adobe Illustrator 16.0.0, SVG Export Plug-In . SVG Version: 6.00 Build 0)  -->
<!DOCTYPE svg PUBLIC "-//W3C//DTD SVG 1.1//EN" "http://www.w3.org/Graphics/SVG/1.1/DTD/svg11.dtd">
<svg version="1.1" id="Layer_1" xmlns="http://www.w3.org/2000/svg" xmlns:xlink="http://www.w3.org/1999/xlink" x="0px" y="0px"
	 width="295.73px" height="295.839px" viewBox="0 0 295.73 295.839" enable-background="new 0 0 295.73 295.839"
	 xml:space="preserve">
<g>
	<path fill="#F7F7F7" d="M147.89,295.839C66.463,295.346-1.295,229.625,0.019,144.992C1.231,67.031,65.205-1.944,152.162,0.042
		c76.69,1.752,145.731,65.384,143.518,152.217C293.703,229.66,230.507,295.033,147.89,295.839z"/>
	<path fill="#FEFEFE" d="M293.846,147.834c-0.965,81.099-64.513,146.812-148.193,145.731C65.936,292.539,1.02,229.214,2.172,145.405
		C3.25,66.927,65.364,0.923,150.596,2.188C229.771,3.362,292.578,66.068,293.846,147.834z"/>
	<path fill="#F6F6F6" d="M123.649,97.872c-1.554-12.708-10.608-21.727-16.193-32.424c-6.871-13.163-14.66-25.854-22.312-38.593
		c-1.959-3.261-1.152-4.658,1.891-6.086c14.675-6.884,29.952-11.265,46.152-13.042c15.877-1.74,31.354-0.495,46.832,2.972
		c19.118,4.283,36.414,12.556,52.067,24.079c27.592,20.309,44.808,47.754,52.996,80.753c4.378,17.636,4.864,35.548,2.011,53.71
		c-5.213,33.168-20.572,60.658-44.736,83.486c-4.801,4.535-10.227,8.419-15.812,12.031c-2.252,1.455-3.553,1.098-4.796-1.141
		c-6.267-11.269-12.632-22.481-18.854-33.775c-1.658-3.01-4.754-5.221-5.035-8.993c2.525-2.208,5.601-1.474,8.492-1.494
		c9.025-0.065,18.062,0.56,27.062-0.36c4.207-2.287,4.66-3.389,2.247-7.817c-4.385-8.048-8.567-16.388-14.202-23.497
		c-8.867-11.189-8.676-23.598-7.473-36.484c0.223-2.386,0.64-4.657-1.43-6.46c-23.831-23.178-47.767-46.249-71.062-69.969
		c-1.048-1.067-2.105-2.125-3.229-3.118c-2.738-2.419-5.836-3.196-9.232-1.703c-3.204,1.409-3.897,4.281-3.911,7.454
		c-0.02,4.988,0.062,9.977-0.043,14.963C125.042,94.272,125.611,96.427,123.649,97.872z"/>
	<path fill="#F6F6F6" d="M184.879,198.884c-7.854-13.397-15.228-27.082-23.853-40.02c-3.027-4.255-1.268-9.068-1.606-13.638
		c-0.055-1.825-0.104-3.652,0.003-5.476c-0.188-3.343,0.21-6.473,1.759-9.612c2.786-5.652,0.933-8.494-5.211-8.753
		c-4.324-0.183-8.589,0.435-12.878,0.79c-6.017,0.499-7.674-0.918-7.56-6.795c0.18-9.245-0.875-18.522,0.627-27.729
		c1.657-2.12,2.935-0.447,4.114,0.548c2.035,1.715,3.824,3.702,5.707,5.584c16.125,16.118,32.249,32.236,48.357,48.369
		c1.64,1.642,3.467,3.136,4.525,5.289c3.427,12.363,4.671,24.472-3.131,35.933c-2.611,3.836-4.588,8.115-7.022,12.09
		C187.815,196.927,187.232,198.962,184.879,198.884z"/>
	<path fill="#00A9AE" d="M197.839,146.68c-20.259-19.733-40.285-39.696-59.97-60.002c-2.586,0.544-1.444,2.624-1.462,4
		c-0.109,8.401-0.049,16.806-0.057,25.208c-0.005,6.14-0.013,6.14-6.389,6.418c-2.202-0.01-4.488,0.337-6.259-1.485
		c-0.018-7.65-0.036-15.298-0.054-22.947c0.021-6.812,0.167-13.625,0.015-20.432c-0.092-4.13,1.457-7.135,5.142-8.844
		c3.482-1.616,6.791-0.819,9.811,1.396c0.4,0.293,0.793,0.608,1.144,0.958c24.336,24.29,48.666,48.585,72.998,72.879
		c-1.508,1.592-3.49,1.321-5.387,1.386C204.084,144.973,200.879,145.283,197.839,146.68z"/>
	<path fill="#53BAB2" d="M155.937,197.906c-7.713,1.701-15.542,0.521-23.312,0.871c-7.313,0.33-14.658-0.062-21.988-0.035
		c-7.449,0.026-9.729-2.197-9.763-9.828c-0.061-14.332-0.103-28.66-0.152-42.991c0.661-0.833,1.59-1.314,2.585-1.341
		c9.27-0.255,18.545-0.93,27.803,0.258c1.622,2.173,1.312,4.728,1.323,7.183c0.048,12.592-0.015,25.184,0.036,37.775
		c0.024,6.136,0.34,6.4,6.489,6.463c3.812,0.037,7.623-0.061,11.433,0.048C152.356,196.365,154.416,196.244,155.937,197.906z"/>
	<path fill="#0DA2A1" d="M155.937,197.906c-6.305-0.037-12.646-0.514-18.9,0.024c-5.315,0.456-6.339-1.44-6.248-6.343
		c0.285-15.43,0.07-30.867,0.048-46.303c0.655-1.409,1.994-1.752,3.298-1.812c7.753-0.356,15.511-0.37,23.265,0.002
		c1.168,0.056,2.269,0.446,3.078,1.388c0.183,4.667,0.365,9.334,0.55,14.001c-0.001,10.393-0.039,20.785,0.015,31.178
		C161.062,193.848,160.107,196.884,155.937,197.906z"/>
	<path fill="#B7E4FA" d="M197.839,146.68c1.849-4.622,5.865-2.006,8.899-2.669c1.868,1.846,1.747,4.253,1.674,6.549
		c-0.646,20.422,1.479,40.792,1.071,61.212c-0.124,6.2,0.27,6.433,6.441,6.481c4.316,0.035,8.636-0.062,12.949,0.043
		c2.122,0.052,4.379-0.188,6.02,1.677c-3.431,1.858-7.144,0.769-10.698,0.856c-8.773,0.221-17.558,0.039-26.337,0.02
		c-4.819-0.016-9.647,0.148-14.455-0.09c-6.433-0.318-8.239-3.5-5.344-9.237c2.154-4.272,4.537-8.429,6.818-12.638
		c4.572-7.813,9.704-15.365,13.543-23.525c3.152-6.699,1.437-14.256,0.902-21.445C199.144,151.478,198.351,149.089,197.839,146.68z"
		/>
	<path fill="#53BAB2" d="M123.703,120.818c2.062,0.015,4.122,0.028,6.184,0.043c3.848,6.314,3.393,12.832,0.917,19.451
		c-6.643,2.381-13.518,0.838-20.277,1.089c-3.367,0.126-7.048,1.018-10.036-1.643c0.009-3.318,0.598-6.381-2.827-9.165
		c-1.877-1.526-1.249-5.737-0.128-8.461c0.917-2.226,3.523-1.204,5.39-1.233C109.849,120.789,116.777,120.833,123.703,120.818z"/>
	<path fill="#8C503E" d="M100.49,139.758c10.11-0.02,20.221-0.039,30.331-0.06c1.218-0.975,2.652-1.315,4.166-1.344
		c7.264-0.133,14.528-0.159,21.792,0.02c1.327,0.033,2.634,0.276,3.699,1.194c0,1.764,0,3.529,0,5.294
		c-9.88,0.14-19.761,0.279-29.641,0.421c-10.039,0.214-20.076,0.427-30.114,0.639l-0.059-0.264
		c-5.624-0.719-11.271-0.14-16.905-0.306c-1.695-0.051-3.512,0.115-3.644-2.273c-0.149-2.694,1.744-2.695,3.693-2.722
		c5.312-0.075,10.628,0.268,15.935-0.182C99.948,139.957,100.196,139.818,100.49,139.758z"/>
	<path fill="#8D503F" d="M75.907,150.869c0.179,22.235,0.383,44.471,0.479,66.705c0.006,1.51,1.19,3.861-1.848,4.275
		c-2.686,0.367-3.759-0.396-3.737-3.398c0.114-15.767,0.002-31.533-0.032-47.301c-0.835-6.021-0.408-12.079-0.286-18.107
		C70.565,148.962,73.158,149.276,75.907,150.869z"/>
	<path fill="#9F523C" d="M75.907,150.869c-3.798-0.578-5.365,0.769-5.105,4.859c0.325,5.118,0.008,10.277-0.032,15.42
		c-1.084-5.372-0.219-10.807-0.472-16.205c-0.098-2.081,0.519-4.539-2.947-4.299c-0.688,0.049-1.492-0.296-1.432-1.021
		c0.428-5.074-3.577-3.316-6.012-3.974c-0.827-1.603-0.731-3.217-0.06-4.839l-0.022,0.015c2.763-0.595,6.417-0.033,6.065-4.672
		c1.199-0.741,2.507-0.397,3.782-0.377c2.136-1.503,4.271-1.503,6.405,0c2.012-0.011,4.376-0.893,4.501,2.643
		c0.08,2.243,2.146,1.521,3.46,1.553c5.234,0.128,10.471,0.146,15.706,0.205c-5.01,1.477-10.141,0.306-15.199,0.695
		c-1.395,0.107-3.311-0.435-3.479,1.746c-0.202,2.604,1.917,2.092,3.485,2.238c5.361,0.495,10.824-1.024,16.116,0.804
		c-5.616,0.02-11.229,0.007-16.842,0.086c-1.197,0.017-3.301-0.529-3.167,1.306C80.948,151.014,78.322,150.656,75.907,150.869z"/>
	<path fill="#8F5442" d="M76.077,135.775c-2.135,0-4.27,0-6.405,0c0.879-10.764-0.157-21.542,0.216-32.308
		c0.061-1.745-0.99-4.137,2.453-4.242c3.43-0.104,3.101,2.041,3.137,4.254C75.651,114.246,75.873,125.01,76.077,135.775z"/>
	<path fill="#965F4F" d="M65.889,136.152c0.933,5.394-2.619,4.964-6.065,4.672C62.433,140.03,65.945,140.407,65.889,136.152z"/>
	<path fill="#965F4F" d="M59.846,140.81c0.02,1.613,0.04,3.226,0.06,4.839C58.362,144.055,58.594,142.438,59.846,140.81z"/>
	<path fill="#00ACEA" d="M234.894,219.973c-7.483,0.021-14.978-0.175-22.447,0.147c-3.85,0.166-4.646-1.162-4.677-4.797
		c-0.203-23.771-0.659-47.544-1.031-71.315c2.007-0.06,4.014-0.12,6.02-0.182c4.375,0.48,2.894,3.7,2.67,6.081
		c-1.075,11.463-2.701,22.734,4.736,33.247c6.21,8.777,11.348,18.323,16.819,27.611
		C239.875,215.673,239.375,217.347,234.894,219.973z"/>
	<path fill="#FEDB02" d="M181.842,95.892c-5.224-2.228-7.63-6.197-6.724-11.086c0.896-4.839,4.231-7.57,9.75-7.984
		c2.427,5.19,2.729,10.708,2.261,16.271C186.847,96.445,184.67,96.966,181.842,95.892z"/>
	<path fill="#FEC70D" d="M181.842,95.892c2.869,0.303,4.319-0.714,4.043-3.867c-0.444-5.058-0.688-10.136-1.017-15.204
		c4.624-0.604,7.741,1.76,9.421,5.635c1.657,3.822,1.359,7.872-1.747,11.04C189.584,96.513,186.026,97.853,181.842,95.892z"/>
	<path fill="#3EB4C2" d="M210.899,113.031c4.912-0.007,7.753,2.616,8.208,7.307c0.426,4.38-1.453,7.627-6.159,8.582
		c-2.038,0.95-2.954-0.482-3.132-1.952C209.248,122.277,208.148,117.484,210.899,113.031z"/>
	<path fill="#5EC6CA" d="M210.899,113.031c-0.009,4.054-0.019,8.107-0.028,12.161c-0.004,1.632-0.196,3.366,2.077,3.728
		c-5.311,0.812-9.356-1.898-10.032-6.721C202.23,117.309,205.218,113.877,210.899,113.031z"/>
	<path fill="#F26F25" d="M195.835,68.841c-3.303,0.653-5.43-1.056-6.698-3.764c-1.187-2.53-0.957-5.269,0.94-7.387
		c2.05-2.285,4.585-3.727,7.784-1.956C196.672,60.024,198.502,64.78,195.835,68.841z"/>
	<path fill="#E52E29" d="M195.835,68.841c-0.003-3.103-0.01-6.208-0.006-9.311c0.002-1.623-0.261-3.398,2.034-3.796
		c3.69,1.008,5.103,3.854,4.633,7.182C202.005,66.394,200.05,69.115,195.835,68.841z"/>
	<path fill="#B0D13E" d="M203.899,105.007c-3.726,0.709-5.395-1.478-5.407-4.624c-0.015-3.166,1.703-5.29,5.391-4.633
		C205.909,98.832,205.883,101.917,203.899,105.007z"/>
	<path fill="#91C747" d="M203.899,105.007c-0.006-3.086-0.011-6.171-0.018-9.257c2.98-0.066,4.278,1.825,4.345,4.375
		C208.296,102.842,207.183,105.016,203.899,105.007z"/>
	<path fill="#0EA2A1" d="M160.477,139.569c-9.887,0.044-19.771,0.087-29.656,0.131c-0.114-6.29,0.546-12.618-0.937-18.838
		c4.736,0.81,6.317-1.053,6.09-5.909c-0.396-8.435-0.17-16.902-0.057-25.354c0.016-1.107-1.289-3.719,1.95-2.92
		c-2.079,0.67-1.368,2.451-1.366,3.794c0.014,8.827,0.24,17.654,0.149,26.479c-0.032,3.148,1.12,3.989,4.111,3.81
		c5.644-0.339,11.308-0.414,16.964-0.445c1.896-0.011,4.557-0.917,5.457,1.249c1.132,2.723,1.978,6.98,0.05,8.546
		C159.68,132.999,161.328,136.456,160.477,139.569z"/>
</g>
</svg>
